<svg width="65" height="24" viewBox="0 0 65 24" fill="none" xmlns="http://www.w3.org/2000/svg">
<rect width="65" height="24" fill="#181C14"/>
<path d="M11.2927 12.7066C10.9024 12.3163 10.9024 11.6837 11.2927 11.2934L17.2934 5.29268C17.6837 4.90244 18.3163 4.90244 18.7066 5.29268L24.7073 11.2934C25.0976 11.6837 25.0976 12.3163 24.7073 12.7066L18.7066 18.7073C18.3163 19.0976 17.6837 19.0976 17.2934 18.7073L11.2927 12.7066Z" fill="#EE513B"/>
<path d="M16.0744 6.53076L15.4668 7.13843L17.0362 8.70789C16.9727 8.8441 16.9373 8.99601 16.9373 9.1562C16.9373 9.611 17.223 9.99905 17.6248 10.1506V13.9899C17.223 14.1415 16.9373 14.5295 16.9373 14.9843C16.9373 15.5711 17.413 16.0468 17.9998 16.0468C18.5866 16.0468 19.0623 15.5711 19.0623 14.9843C19.0623 14.572 18.8274 14.2145 18.4842 14.0384V10.1559L19.9844 11.6561C19.924 11.7896 19.8904 11.9377 19.8904 12.0937C19.8904 12.6805 20.3661 13.1562 20.9529 13.1562C21.5397 13.1562 22.0154 12.6805 22.0154 12.0937C22.0154 11.5069 21.5397 11.0312 20.9529 11.0312C20.8389 11.0312 20.7291 11.0492 20.6261 11.0824L19.0148 9.47115C19.0457 9.37165 19.0623 9.26585 19.0623 9.1562C19.0623 8.56939 18.5866 8.09369 17.9998 8.09369C17.8901 8.09369 17.7844 8.11031 17.6848 8.14115L16.0744 6.53076Z" fill="white"/>
<path d="M40.944 16.62C40.2 16.62 39.552 16.492 39 16.236C38.448 15.98 37.988 15.636 37.62 15.204C37.26 14.764 36.988 14.276 36.804 13.74C36.628 13.196 36.54 12.64 36.54 12.072C36.54 11.504 36.628 10.948 36.804 10.404C36.988 9.86 37.264 9.372 37.632 8.94C38 8.5 38.464 8.152 39.024 7.896C39.584 7.632 40.236 7.5 40.98 7.5C41.564 7.5 42.064 7.576 42.48 7.728C42.904 7.872 43.256 8.06 43.536 8.292C43.824 8.524 44.052 8.772 44.22 9.036C44.396 9.292 44.528 9.536 44.616 9.768C44.704 10 44.764 10.192 44.796 10.344C44.828 10.488 44.844 10.56 44.844 10.56H43.212C43.212 10.56 43.196 10.508 43.164 10.404C43.14 10.292 43.084 10.156 42.996 9.996C42.908 9.836 42.78 9.676 42.612 9.516C42.452 9.356 42.24 9.224 41.976 9.12C41.712 9.008 41.384 8.952 40.992 8.952C40.52 8.952 40.108 9.04 39.756 9.216C39.412 9.392 39.124 9.628 38.892 9.924C38.66 10.22 38.488 10.552 38.376 10.92C38.264 11.288 38.208 11.664 38.208 12.048C38.208 12.568 38.312 13.068 38.52 13.548C38.728 14.028 39.036 14.42 39.444 14.724C39.86 15.028 40.372 15.18 40.98 15.18C41.684 15.18 42.24 14.988 42.648 14.604C43.064 14.22 43.3 13.708 43.356 13.068H40.932V11.772H44.94V12.432C44.94 13.352 44.764 14.124 44.412 14.748C44.06 15.364 43.58 15.832 42.972 16.152C42.372 16.464 41.696 16.62 40.944 16.62ZM47.161 9.156C46.881 9.156 46.649 9.064 46.465 8.88C46.289 8.696 46.201 8.476 46.201 8.22C46.201 7.964 46.289 7.744 46.465 7.56C46.649 7.376 46.881 7.284 47.161 7.284C47.441 7.284 47.673 7.376 47.857 7.56C48.041 7.744 48.133 7.964 48.133 8.22C48.133 8.476 48.041 8.696 47.857 8.88C47.673 9.064 47.441 9.156 47.161 9.156ZM46.369 16.5V10.14H47.965V16.5H46.369ZM52.4909 16.62C52.0589 16.62 51.7029 16.556 51.4229 16.428C51.1429 16.3 50.9229 16.132 50.7629 15.924C50.6109 15.716 50.5029 15.488 50.4389 15.24C50.3749 14.992 50.3429 14.748 50.3429 14.508V11.424H49.2509V10.14H50.3429V8.556H51.9389V10.14H53.3669V11.424H51.9389V14.472C51.9389 15.04 52.2589 15.324 52.8989 15.324C53.0509 15.324 53.1909 15.316 53.3189 15.3C53.4549 15.276 53.5229 15.264 53.5229 15.264V16.512C53.5229 16.512 53.4189 16.528 53.2109 16.56C53.0109 16.6 52.7709 16.62 52.4909 16.62Z" fill="#EBE3D5"/>
</svg>
