<svg width="119" height="24" viewBox="0 0 119 24" fill="none" xmlns="http://www.w3.org/2000/svg">
<rect width="119" height="24" fill="#181C14"/>
<g clip-path="url(#clip0_64_104)">
<path d="M25.6975 13.581C25.6045 13.2992 25.3608 13.103 25.0456 13.0559C24.897 13.0337 24.7268 13.0432 24.5254 13.0847C24.1744 13.1571 23.914 13.1847 23.724 13.19C24.4413 11.9788 25.0247 10.5976 25.3605 9.29738C25.9035 7.19506 25.6133 6.23731 25.2742 5.80407C24.3769 4.65745 23.0676 4.04143 21.488 4.02255C20.6455 4.01227 19.9057 4.17863 19.5199 4.29824C19.1606 4.23489 18.7743 4.19949 18.3689 4.19293C17.6092 4.18082 16.9378 4.34643 16.3642 4.68683C16.0465 4.57948 15.5369 4.42809 14.9483 4.33145C13.5639 4.10417 12.4482 4.28129 11.6321 4.85782C10.6438 5.5559 10.1857 6.76873 10.2704 8.46268C10.2973 9.00051 10.5982 10.6368 11.0719 12.1888C11.3441 13.0807 11.6344 13.8215 11.9347 14.3905C12.3606 15.1975 12.8163 15.6727 13.3278 15.8434C13.6146 15.9389 14.1356 16.0058 14.6835 15.5495C14.753 15.6336 14.8456 15.7172 14.9686 15.7948C15.1248 15.8933 15.3158 15.9738 15.5064 16.0215C16.1938 16.1933 16.8376 16.1503 17.3869 15.9095C17.3903 16.0072 17.3929 16.1005 17.3951 16.1811C17.3988 16.3118 17.4023 16.44 17.4071 16.5599C17.4397 17.3705 17.4948 18.0007 17.6582 18.4416C17.6672 18.4659 17.6792 18.5029 17.692 18.542C17.7735 18.7916 17.9098 19.2094 18.2566 19.5367C18.6157 19.8756 19.0501 19.9796 19.4479 19.9796C19.6474 19.9796 19.8378 19.9534 20.0047 19.9176C20.5999 19.7901 21.2758 19.5957 21.7648 18.8995C22.2271 18.2413 22.4518 17.25 22.4925 15.688C22.4977 15.6438 22.5026 15.6017 22.5073 15.5615C22.5104 15.5343 22.5137 15.5066 22.5169 15.4789L22.6259 15.4885L22.6539 15.4904C23.2601 15.518 24.0013 15.3895 24.4565 15.178C24.8163 15.0111 25.9689 14.4026 25.6975 13.581Z" fill="black"/>
<path d="M24.661 13.7407C22.8586 14.1125 22.7347 13.5023 22.7347 13.5023C24.6378 10.6785 25.4333 7.09403 24.7468 6.21676C22.8738 3.82374 19.6317 4.95548 19.5776 4.98486L19.5602 4.98798C19.2041 4.91406 18.8056 4.87002 18.3577 4.86271C17.5421 4.84935 16.9235 5.07652 16.454 5.43251C16.454 5.43251 10.6704 3.04988 10.9394 8.42912C10.9966 9.57352 12.5796 17.0881 14.4678 14.8184C15.1579 13.9884 15.8247 13.2866 15.8247 13.2866C16.1559 13.5066 16.5524 13.6188 16.968 13.5785L17.0003 13.5511C16.9903 13.6542 16.9949 13.755 17.0132 13.8743C16.5268 14.4178 16.6698 14.5132 15.6974 14.7133C14.7135 14.9161 15.2915 15.2771 15.6689 15.3715C16.1264 15.4859 17.1848 15.6479 17.9 14.6468L17.8714 14.761C18.062 14.9137 18.1959 15.754 18.1734 16.5157C18.151 17.2774 18.136 17.8004 18.2862 18.2089C18.4364 18.6173 18.586 19.5364 19.8643 19.2625C20.9324 19.0336 21.4859 18.4405 21.5629 17.4511C21.6175 16.7476 21.7412 16.8516 21.749 16.2227L21.8482 15.925C21.9626 14.9715 21.8664 14.6639 22.5244 14.807L22.6843 14.821C23.1687 14.843 23.8026 14.7431 24.1746 14.5702C24.9757 14.1984 25.4509 13.5776 24.661 13.7407H24.661Z" fill="#336791"/>
<path d="M16.7926 8.94096C16.6302 8.91835 16.4831 8.93928 16.4086 8.9956C16.3667 9.02732 16.3538 9.06404 16.3503 9.08934C16.341 9.15631 16.3879 9.23034 16.4167 9.26854C16.4983 9.37664 16.6175 9.45095 16.7354 9.46733C16.7525 9.46969 16.7695 9.47084 16.7864 9.47084C16.9831 9.47084 17.1619 9.3177 17.1777 9.20465C17.1974 9.06308 16.9919 8.9687 16.7926 8.94096Z" fill="white"/>
<path d="M22.1735 8.94546C22.158 8.83449 21.9604 8.80285 21.773 8.8289C21.5859 8.85499 21.4044 8.93944 21.4196 9.05066C21.4318 9.13716 21.5879 9.28482 21.7728 9.28479C21.7884 9.28479 21.8041 9.28375 21.82 9.28153C21.9434 9.26444 22.034 9.18607 22.077 9.14089C22.1425 9.07209 22.1804 8.99534 22.1735 8.94546Z" fill="white"/>
<path d="M25.2608 13.6986C25.1921 13.4908 24.9709 13.4239 24.6034 13.4998C23.5121 13.725 23.1214 13.569 22.993 13.4745C23.8412 12.1823 24.539 10.6205 24.9154 9.16314C25.0937 8.47284 25.1922 7.83177 25.2002 7.30927C25.2091 6.73568 25.1115 6.31426 24.91 6.05681C24.0977 5.01891 22.9057 4.46219 21.4626 4.44689C20.4706 4.43575 19.6324 4.68965 19.4699 4.76103C19.1277 4.67593 18.7547 4.62368 18.3486 4.61702C17.6038 4.60498 16.9601 4.78328 16.4271 5.14668C16.1956 5.06054 15.5973 4.85516 14.8656 4.73731C13.6006 4.5336 12.5954 4.68793 11.8781 5.19613C11.0221 5.80255 10.627 6.88653 10.7035 8.41791C10.7293 8.93317 11.0228 10.5181 11.4861 12.036C12.096 14.0338 12.7588 15.1648 13.4563 15.3974C13.5379 15.4247 13.6321 15.4437 13.7359 15.4437C13.9903 15.4437 14.3022 15.329 14.6268 14.9389C15.1659 14.2903 15.6692 13.7468 15.8548 13.5494C16.1289 13.6966 16.4301 13.7787 16.7382 13.787C16.7388 13.795 16.7396 13.8031 16.7403 13.8111C16.6785 13.8844 16.6278 13.9487 16.5846 14.0035C16.3711 14.2745 16.3267 14.3309 15.6396 14.4724C15.4442 14.5127 14.925 14.6197 14.9174 14.9836C14.9092 15.3811 15.531 15.5481 15.6019 15.5658C15.8488 15.6276 16.0867 15.6581 16.3135 15.6581C16.8652 15.6581 17.3507 15.4768 17.7387 15.1259C17.7268 16.5433 17.7859 17.9399 17.9561 18.3654C18.0954 18.7137 18.4359 19.5651 19.5115 19.565C19.6693 19.565 19.843 19.5467 20.0341 19.5057C21.1566 19.265 21.644 18.7689 21.8326 17.6752C21.9335 17.0907 22.1066 15.6948 22.1881 14.9461C22.3599 14.9997 22.5812 15.0243 22.8204 15.0242C23.3194 15.0242 23.895 14.9183 24.2561 14.7507C24.6616 14.5623 25.3935 14.1001 25.2608 13.6986ZM22.5877 8.63913C22.584 8.86018 22.5536 9.06084 22.5213 9.27031C22.4866 9.49558 22.4507 9.72849 22.4417 10.0112C22.4328 10.2864 22.4671 10.5725 22.5004 10.8491C22.5675 11.4079 22.6364 11.9831 22.3697 12.5508C22.3282 12.4771 22.2882 12.3968 22.2515 12.3078C22.2184 12.2275 22.1464 12.0984 22.0467 11.9197C21.6589 11.2242 20.7507 9.59548 21.2156 8.93088C21.3541 8.73301 21.7055 8.52967 22.5877 8.63913ZM21.5184 4.8945C22.8113 4.92306 23.8341 5.40675 24.5582 6.33207C25.1136 7.04182 24.5021 10.2713 22.7316 13.0574C22.7141 13.0352 22.6963 13.0128 22.6779 12.9898C22.6705 12.9806 22.663 12.9712 22.6555 12.9618C23.113 12.2062 23.0235 11.4586 22.9439 10.7958C22.9112 10.5238 22.8803 10.2669 22.8881 10.0256C22.8963 9.76977 22.9301 9.55044 22.9628 9.33832C23.003 9.07689 23.0439 8.80643 23.0326 8.48757C23.041 8.45413 23.0444 8.41461 23.04 8.36771C23.0112 8.06192 22.6621 7.14688 21.9506 6.31856C21.5614 5.86558 20.9938 5.35859 20.2188 5.01665C20.5522 4.94757 21.008 4.88314 21.5184 4.8945ZM14.2833 14.6533C13.9258 15.0832 13.6788 15.0008 13.5976 14.9738C13.0685 14.7972 12.4546 13.679 11.9133 11.9056C11.445 10.3712 11.1713 8.82825 11.1496 8.39558C11.0812 7.02724 11.4129 6.07358 12.1355 5.56111C13.3115 4.72713 15.245 5.2263 16.0219 5.47949C16.0107 5.49049 15.9991 5.50081 15.988 5.51199C14.7132 6.79953 14.7434 8.99931 14.7465 9.13375C14.7464 9.18564 14.7508 9.25909 14.7568 9.36014C14.7787 9.7301 14.8195 10.4187 14.7105 11.1986C14.6091 11.9232 14.8325 12.6325 15.3232 13.1445C15.374 13.1975 15.4271 13.2473 15.4818 13.2941C15.2634 13.5281 14.7886 14.0454 14.2833 14.6533ZM15.6457 12.8355C15.2502 12.4228 15.0705 11.8488 15.1528 11.2604C15.268 10.4366 15.2254 9.71914 15.2026 9.3337C15.1994 9.27977 15.1966 9.23251 15.1949 9.19521C15.3812 9.03009 16.2442 8.56761 16.8597 8.70865C17.1406 8.773 17.3117 8.96423 17.3829 9.29324C17.7512 10.9964 17.4317 11.7063 17.1749 12.2768C17.122 12.3943 17.072 12.5054 17.0293 12.6203L16.9962 12.7092C16.9125 12.9338 16.8345 13.1426 16.7862 13.3409C16.3658 13.3397 15.9567 13.1601 15.6457 12.8355ZM15.7102 15.1325C15.5875 15.1018 15.477 15.0485 15.4123 15.0044C15.4664 14.9789 15.5627 14.9443 15.7297 14.9099C16.538 14.7434 16.6628 14.626 16.9354 14.2799C16.998 14.2005 17.0688 14.1106 17.1669 14.001L17.167 14.0009C17.3132 13.8372 17.38 13.865 17.5012 13.9153C17.5995 13.9559 17.6951 14.079 17.7339 14.2146C17.7523 14.2785 17.7729 14.4001 17.7055 14.4945C17.136 15.2919 16.3062 15.2816 15.7102 15.1325ZM19.9405 19.069C18.9516 19.2809 18.6015 18.7763 18.3708 18.1995C18.2219 17.8271 18.1487 16.148 18.2006 14.2936C18.2013 14.2689 18.1978 14.2451 18.191 14.2227C18.1851 14.1795 18.176 14.1357 18.1634 14.0917C18.0861 13.8219 17.8979 13.5962 17.6722 13.5026C17.5825 13.4655 17.4179 13.3973 17.22 13.4479C17.2623 13.274 17.3354 13.0778 17.4147 12.8652L17.448 12.7758C17.4855 12.675 17.5325 12.5706 17.5822 12.4601C17.8509 11.8632 18.2188 11.0457 17.8195 9.19882C17.6699 8.50709 17.1704 8.16931 16.4132 8.24774C15.9592 8.29472 15.5439 8.47789 15.3367 8.58291C15.2922 8.60549 15.2515 8.62727 15.2134 8.64852C15.2712 7.95152 15.4897 6.649 16.3068 5.82491C16.8212 5.30606 17.5064 5.04983 18.3412 5.06363C19.986 5.09057 21.0408 5.9347 21.6361 6.63811C22.149 7.24427 22.4268 7.85485 22.5377 8.18414C21.704 8.0994 21.1371 8.26397 20.8496 8.67486C20.2244 9.56864 21.1917 11.3035 21.6566 12.1372C21.7419 12.29 21.8155 12.4221 21.8386 12.4782C21.99 12.8451 22.186 13.09 22.3291 13.2689C22.373 13.3237 22.4155 13.3768 22.4479 13.4232C22.1954 13.496 21.7419 13.6642 21.7832 14.5048C21.7499 14.9267 21.5128 16.9016 21.3924 17.5993C21.2335 18.5211 20.8943 18.8645 19.9405 19.069ZM24.068 14.3456C23.8098 14.4654 23.3778 14.5553 22.9673 14.5746C22.514 14.5958 22.2832 14.5238 22.2289 14.4795C22.2034 13.9557 22.3985 13.9009 22.6048 13.843C22.6372 13.8338 22.6689 13.825 22.6994 13.8143C22.7184 13.8298 22.7392 13.8451 22.7619 13.8601C23.1263 14.1006 23.7762 14.1266 24.6937 13.9372C24.6971 13.9365 24.7004 13.9358 24.7038 13.9351C24.58 14.0508 24.3683 14.2061 24.068 14.3456Z" fill="white"/>
</g>
<path d="M36.864 16.5V7.62H40.368C41.08 7.62 41.672 7.764 42.144 8.052C42.616 8.332 42.968 8.7 43.2 9.156C43.44 9.604 43.56 10.072 43.56 10.56C43.56 11.048 43.44 11.52 43.2 11.976C42.968 12.424 42.616 12.792 42.144 13.08C41.672 13.368 41.08 13.512 40.368 13.512H38.496V16.5H36.864ZM40.356 9.036H38.496V12.096H40.356C40.708 12.096 41 12.024 41.232 11.88C41.464 11.728 41.636 11.536 41.748 11.304C41.868 11.064 41.928 10.82 41.928 10.572C41.928 10.316 41.868 10.072 41.748 9.84C41.636 9.608 41.464 9.416 41.232 9.264C41 9.112 40.708 9.036 40.356 9.036ZM47.6229 16.62C46.9269 16.62 46.3349 16.464 45.8469 16.152C45.3589 15.84 44.9869 15.436 44.7309 14.94C44.4829 14.436 44.3589 13.896 44.3589 13.32C44.3589 12.744 44.4829 12.208 44.7309 11.712C44.9869 11.208 45.3589 10.8 45.8469 10.488C46.3349 10.176 46.9269 10.02 47.6229 10.02C48.3269 10.02 48.9189 10.176 49.3989 10.488C49.8869 10.8 50.2549 11.208 50.5029 11.712C50.7589 12.208 50.8869 12.744 50.8869 13.32C50.8869 13.896 50.7589 14.436 50.5029 14.94C50.2549 15.436 49.8869 15.84 49.3989 16.152C48.9189 16.464 48.3269 16.62 47.6229 16.62ZM47.6229 15.288C47.9829 15.288 48.2829 15.196 48.5229 15.012C48.7709 14.828 48.9589 14.588 49.0869 14.292C49.2149 13.988 49.2789 13.664 49.2789 13.32C49.2789 12.968 49.2149 12.644 49.0869 12.348C48.9589 12.052 48.7709 11.812 48.5229 11.628C48.2829 11.444 47.9829 11.352 47.6229 11.352C47.2709 11.352 46.9709 11.444 46.7229 11.628C46.4749 11.812 46.2869 12.052 46.1589 12.348C46.0309 12.644 45.9669 12.968 45.9669 13.32C45.9669 13.664 46.0309 13.988 46.1589 14.292C46.2869 14.588 46.4749 14.828 46.7229 15.012C46.9709 15.196 47.2709 15.288 47.6229 15.288ZM54.8511 16.62C54.3311 16.62 53.9031 16.552 53.5671 16.416C53.2311 16.272 52.9631 16.096 52.7631 15.888C52.5711 15.672 52.4271 15.46 52.3311 15.252C52.2351 15.044 52.1711 14.872 52.1391 14.736C52.1151 14.592 52.1031 14.52 52.1031 14.52H53.6151C53.6151 14.52 53.6271 14.564 53.6511 14.652C53.6831 14.74 53.7391 14.844 53.8191 14.964C53.9071 15.076 54.0391 15.176 54.2151 15.264C54.3911 15.352 54.6231 15.396 54.9111 15.396C55.2551 15.396 55.5031 15.324 55.6551 15.18C55.8071 15.028 55.8831 14.86 55.8831 14.676C55.8831 14.5 55.8151 14.36 55.6791 14.256C55.5511 14.144 55.3591 14.06 55.1031 14.004L54.2271 13.824C53.8751 13.752 53.5471 13.648 53.2431 13.512C52.9391 13.368 52.6911 13.176 52.4991 12.936C52.3071 12.688 52.2111 12.372 52.2111 11.988C52.2111 11.42 52.4271 10.952 52.8591 10.584C53.2911 10.208 53.8791 10.02 54.6231 10.02C55.0951 10.02 55.4831 10.084 55.7871 10.212C56.0991 10.34 56.3471 10.5 56.5311 10.692C56.7231 10.884 56.8631 11.076 56.9511 11.268C57.0471 11.46 57.1071 11.624 57.1311 11.76C57.1631 11.888 57.1791 11.952 57.1791 11.952H55.7151C55.7151 11.952 55.7031 11.916 55.6791 11.844C55.6551 11.764 55.6031 11.676 55.5231 11.58C55.4511 11.484 55.3391 11.4 55.1871 11.328C55.0431 11.248 54.8471 11.208 54.5991 11.208C54.2631 11.208 54.0231 11.28 53.8791 11.424C53.7431 11.568 53.6751 11.72 53.6751 11.88C53.6751 12.056 53.7511 12.192 53.9031 12.288C54.0551 12.384 54.2511 12.456 54.4911 12.504L55.3191 12.684C55.9111 12.804 56.3951 13.012 56.7711 13.308C57.1551 13.604 57.3471 14.032 57.3471 14.592C57.3471 14.968 57.2471 15.312 57.0471 15.624C56.8551 15.928 56.5711 16.172 56.1951 16.356C55.8271 16.532 55.3791 16.62 54.8511 16.62ZM61.362 16.62C60.93 16.62 60.574 16.556 60.294 16.428C60.014 16.3 59.794 16.132 59.634 15.924C59.482 15.716 59.374 15.488 59.31 15.24C59.246 14.992 59.214 14.748 59.214 14.508V11.424H58.122V10.14H59.214V8.556H60.81V10.14H62.238V11.424H60.81V14.472C60.81 15.04 61.13 15.324 61.77 15.324C61.922 15.324 62.062 15.316 62.19 15.3C62.326 15.276 62.394 15.264 62.394 15.264V16.512C62.394 16.512 62.29 16.528 62.082 16.56C61.882 16.6 61.642 16.62 61.362 16.62ZM66.7485 19.044C66.1805 19.044 65.7085 18.968 65.3325 18.816C64.9645 18.672 64.6725 18.492 64.4565 18.276C64.2405 18.068 64.0805 17.856 63.9765 17.64C63.8725 17.424 63.8045 17.244 63.7725 17.1C63.7405 16.956 63.7245 16.884 63.7245 16.884H65.2845C65.2845 16.884 65.3005 16.928 65.3325 17.016C65.3645 17.104 65.4285 17.204 65.5245 17.316C65.6285 17.436 65.7765 17.54 65.9685 17.628C66.1605 17.716 66.4165 17.76 66.7365 17.76C67.2965 17.76 67.7005 17.6 67.9485 17.28C68.1965 16.96 68.3205 16.572 68.3205 16.116V15.408H68.2485C68.1605 15.544 68.0325 15.692 67.8645 15.852C67.7045 16.012 67.4925 16.148 67.2285 16.26C66.9725 16.372 66.6605 16.428 66.2925 16.428C65.8205 16.428 65.4085 16.336 65.0565 16.152C64.7045 15.968 64.4085 15.724 64.1685 15.42C63.9285 15.116 63.7485 14.776 63.6285 14.4C63.5165 14.016 63.4605 13.624 63.4605 13.224C63.4605 12.824 63.5165 12.436 63.6285 12.06C63.7485 11.676 63.9285 11.332 64.1685 11.028C64.4085 10.716 64.7045 10.472 65.0565 10.296C65.4085 10.112 65.8205 10.02 66.2925 10.02C66.6605 10.02 66.9725 10.076 67.2285 10.188C67.4925 10.3 67.7045 10.436 67.8645 10.596C68.0325 10.748 68.1605 10.892 68.2485 11.028H68.3205V10.14H69.9165V16.104C69.9165 16.656 69.8005 17.152 69.5685 17.592C69.3365 18.04 68.9845 18.392 68.5125 18.648C68.0485 18.912 67.4605 19.044 66.7485 19.044ZM66.7125 15.144C67.0725 15.144 67.3725 15.052 67.6125 14.868C67.8525 14.676 68.0325 14.436 68.1525 14.148C68.2725 13.852 68.3325 13.544 68.3325 13.224C68.3325 12.896 68.2725 12.588 68.1525 12.3C68.0325 12.004 67.8525 11.764 67.6125 11.58C67.3725 11.396 67.0725 11.304 66.7125 11.304C66.3445 11.304 66.0365 11.396 65.7885 11.58C65.5485 11.764 65.3685 12.004 65.2485 12.3C65.1285 12.588 65.0685 12.896 65.0685 13.224C65.0685 13.544 65.1285 13.852 65.2485 14.148C65.3685 14.436 65.5485 14.676 65.7885 14.868C66.0365 15.052 66.3445 15.144 66.7125 15.144ZM71.4081 16.5V10.14H72.9921V11.016H73.0521C73.1641 10.768 73.3481 10.54 73.6041 10.332C73.8601 10.124 74.2441 10.02 74.7561 10.02C74.9161 10.02 75.0481 10.032 75.1521 10.056C75.2561 10.072 75.3081 10.08 75.3081 10.08V11.628C75.3081 11.628 75.2481 11.62 75.1281 11.604C75.0161 11.588 74.8761 11.58 74.7081 11.58C74.1481 11.58 73.7241 11.736 73.4361 12.048C73.1481 12.36 73.0041 12.864 73.0041 13.56V16.5H71.4081ZM79.1324 16.62C78.5884 16.62 78.1164 16.528 77.7164 16.344C77.3244 16.152 76.9964 15.9 76.7324 15.588C76.4764 15.268 76.2844 14.912 76.1564 14.52C76.0284 14.128 75.9644 13.728 75.9644 13.32C75.9644 12.912 76.0244 12.516 76.1444 12.132C76.2724 11.74 76.4604 11.384 76.7084 11.064C76.9644 10.744 77.2884 10.492 77.6804 10.308C78.0724 10.116 78.5364 10.02 79.0724 10.02C79.6484 10.02 80.1564 10.148 80.5964 10.404C81.0364 10.66 81.3804 11.036 81.6284 11.532C81.8764 12.02 82.0004 12.628 82.0004 13.356V13.764H77.5724C77.5964 14.196 77.7444 14.572 78.0164 14.892C78.2884 15.204 78.6604 15.36 79.1324 15.36C79.4044 15.36 79.6284 15.316 79.8044 15.228C79.9804 15.14 80.1164 15.04 80.2124 14.928C80.3084 14.808 80.3764 14.708 80.4164 14.628C80.4564 14.54 80.4764 14.496 80.4764 14.496H81.9524C81.9524 14.496 81.9324 14.568 81.8924 14.712C81.8524 14.848 81.7764 15.024 81.6644 15.24C81.5604 15.448 81.4044 15.66 81.1964 15.876C80.9884 16.084 80.7164 16.26 80.3804 16.404C80.0444 16.548 79.6284 16.62 79.1324 16.62ZM77.5724 12.72H80.4644C80.4404 12.224 80.2924 11.856 80.0204 11.616C79.7484 11.376 79.4284 11.256 79.0604 11.256C78.6524 11.256 78.3124 11.388 78.0404 11.652C77.7684 11.908 77.6124 12.264 77.5724 12.72ZM86.7203 16.62C86.1683 16.62 85.6963 16.552 85.3043 16.416C84.9123 16.28 84.5843 16.104 84.3203 15.888C84.0643 15.672 83.8603 15.444 83.7083 15.204C83.5563 14.956 83.4403 14.724 83.3603 14.508C83.2883 14.292 83.2403 14.116 83.2163 13.98C83.1923 13.844 83.1803 13.776 83.1803 13.776H84.8363C84.8363 13.776 84.8443 13.824 84.8603 13.92C84.8843 14.016 84.9323 14.14 85.0043 14.292C85.0763 14.436 85.1803 14.58 85.3163 14.724C85.4603 14.868 85.6483 14.992 85.8803 15.096C86.1203 15.192 86.4163 15.24 86.7683 15.24C87.3123 15.24 87.7243 15.12 88.0043 14.88C88.2923 14.632 88.4363 14.328 88.4363 13.968C88.4363 13.664 88.3283 13.424 88.1123 13.248C87.8963 13.064 87.5763 12.928 87.1523 12.84L85.9763 12.588C85.5203 12.492 85.0923 12.348 84.6923 12.156C84.3003 11.964 83.9843 11.704 83.7443 11.376C83.5043 11.048 83.3843 10.628 83.3843 10.116C83.3843 9.58 83.5163 9.116 83.7803 8.724C84.0523 8.332 84.4243 8.032 84.8963 7.824C85.3683 7.608 85.9203 7.5 86.5523 7.5C87.1523 7.5 87.6483 7.588 88.0403 7.764C88.4323 7.94 88.7443 8.156 88.9763 8.412C89.2163 8.668 89.3923 8.924 89.5043 9.18C89.6163 9.436 89.6883 9.652 89.7203 9.828C89.7603 10.004 89.7803 10.092 89.7803 10.092H88.1843C88.1843 10.092 88.1683 10.032 88.1363 9.912C88.1043 9.784 88.0323 9.64 87.9203 9.48C87.8083 9.32 87.6403 9.18 87.4163 9.06C87.1923 8.932 86.8923 8.868 86.5163 8.868C85.9803 8.868 85.5883 8.988 85.3403 9.228C85.1003 9.468 84.9803 9.728 84.9803 10.008C84.9803 10.296 85.0923 10.52 85.3163 10.68C85.5403 10.84 85.8403 10.964 86.2163 11.052L87.4763 11.316C87.9483 11.42 88.3803 11.576 88.7723 11.784C89.1643 11.992 89.4763 12.268 89.7083 12.612C89.9403 12.948 90.0563 13.368 90.0563 13.872C90.0563 14.384 89.9283 14.848 89.6723 15.264C89.4163 15.68 89.0403 16.012 88.5443 16.26C88.0483 16.5 87.4403 16.62 86.7203 16.62ZM95.6477 16.62C94.9197 16.62 94.2797 16.492 93.7277 16.236C93.1757 15.972 92.7117 15.624 92.3357 15.192C91.9677 14.752 91.6877 14.26 91.4957 13.716C91.3117 13.172 91.2197 12.616 91.2197 12.048C91.2197 11.48 91.3117 10.928 91.4957 10.392C91.6877 9.848 91.9677 9.36 92.3357 8.928C92.7117 8.496 93.1757 8.152 93.7277 7.896C94.2797 7.632 94.9197 7.5 95.6477 7.5C96.3757 7.5 97.0157 7.632 97.5677 7.896C98.1197 8.152 98.5797 8.496 98.9477 8.928C99.3237 9.36 99.6037 9.848 99.7877 10.392C99.9797 10.928 100.076 11.48 100.076 12.048C100.076 12.608 99.9837 13.156 99.7997 13.692C99.6237 14.228 99.3557 14.708 98.9957 15.132L100.268 16.5H98.4557L97.9877 16.008C97.6677 16.2 97.3117 16.352 96.9197 16.464C96.5357 16.568 96.1117 16.62 95.6477 16.62ZM95.6477 15.144C95.8877 15.144 96.1117 15.12 96.3197 15.072C96.5277 15.016 96.7197 14.94 96.8957 14.844L95.5157 13.38L96.5477 12.492L97.8797 13.932C98.0477 13.66 98.1757 13.364 98.2637 13.044C98.3517 12.716 98.3957 12.384 98.3957 12.048C98.3957 11.528 98.2877 11.036 98.0717 10.572C97.8637 10.1 97.5557 9.716 97.1477 9.42C96.7477 9.124 96.2477 8.976 95.6477 8.976C95.0477 8.976 94.5437 9.124 94.1357 9.42C93.7277 9.716 93.4197 10.1 93.2117 10.572C93.0037 11.036 92.8997 11.528 92.8997 12.048C92.8997 12.576 93.0037 13.076 93.2117 13.548C93.4197 14.02 93.7277 14.404 94.1357 14.7C94.5437 14.996 95.0477 15.144 95.6477 15.144ZM101.446 16.5V7.62H103.078V15.084H107.494V16.5H101.446Z" fill="#EBE3D5"/>
<defs>
<clipPath id="clip0_64_104">
<rect width="16" height="16" fill="white" transform="translate(10 4)"/>
</clipPath>
</defs>
</svg>
