<svg width="82" height="24" viewBox="0 0 82 24" fill="none" xmlns="http://www.w3.org/2000/svg">
<rect width="82" height="24" fill="#181C14"/>
<path d="M19.3394 11.9879C19.3394 11.2707 18.7398 10.6892 18 10.6892C17.2603 10.6892 16.6605 11.2707 16.6605 11.9879C16.6605 12.7052 17.2603 13.2867 18 13.2867C18.7398 13.2867 19.3394 12.7052 19.3394 11.9879Z" fill="#53C1DE"/>
<path fill-rule="evenodd" clip-rule="evenodd" d="M22.3502 9.57685C22.633 8.46239 22.9886 6.39574 21.7352 5.69508C20.4876 4.99747 18.8642 6.33421 18.007 7.13659C17.1522 6.34221 15.4832 5.01118 14.2308 5.71407C12.9838 6.41401 13.3683 8.4464 13.6574 9.56785C12.4942 9.8882 10.5 10.5782 10.5 11.9879C10.5 13.3937 12.4921 14.1444 13.6485 14.4644C13.3583 15.5921 12.993 17.5954 14.2416 18.2938C15.4986 18.9966 17.1625 17.6972 18.0277 16.8861C18.8905 17.6932 20.4983 19.001 21.7461 18.3007C22.9978 17.5981 22.6718 15.5592 22.3827 14.4312C23.5037 14.1105 25.5 13.3761 25.5 11.9879C25.5 10.5917 23.4951 9.89615 22.3502 9.57685ZM22.2081 13.8335C22.0183 13.2508 21.762 12.6311 21.4486 11.991C21.7478 11.366 21.9941 10.7544 22.1786 10.1754C23.018 10.4114 24.8593 10.9506 24.8593 11.9879C24.8593 13.035 23.0923 13.5793 22.2081 13.8335ZM21.425 17.763C20.494 18.2855 19.111 17.0348 18.4739 16.4404C18.8966 15.9922 19.319 15.4711 19.7312 14.8924C20.4564 14.8301 21.1415 14.7281 21.7628 14.5888C21.9663 15.3867 22.3601 17.2381 21.425 17.763ZM14.5618 17.7555C13.6307 17.235 14.0563 15.4473 14.2698 14.6166C14.8842 14.7484 15.5643 14.8432 16.2912 14.9004C16.7062 15.4666 17.1408 15.987 17.5788 16.4428C17.0377 16.9504 15.4973 18.2785 14.5618 17.7555ZM11.1407 11.9879C11.1407 10.937 12.971 10.4016 13.8295 10.1663C14.0173 10.7582 14.2635 11.3772 14.5606 12.0031C14.2596 12.6383 14.0099 13.267 13.8204 13.866C13.0018 13.6388 11.1407 13.0395 11.1407 11.9879ZM14.5518 6.25177C15.4867 5.72708 16.9374 7.00491 17.558 7.58006C17.1222 8.03377 16.6915 8.5503 16.2801 9.11325C15.5747 9.17665 14.8994 9.27845 14.2785 9.41485C14.0456 8.51035 13.618 6.77589 14.5518 6.25177ZM20.1896 9.78855C20.6682 9.8471 21.1268 9.925 21.5574 10.0203C21.4281 10.422 21.267 10.842 21.0772 11.2726C20.8022 10.7666 20.5069 10.2708 20.1896 9.78855ZM18.0071 8.02405C18.3027 8.33448 18.5987 8.68115 18.8899 9.05725C18.2993 9.03015 17.7077 9.03005 17.117 9.05685C17.4085 8.68424 17.707 8.33809 18.0071 8.02405ZM14.9282 11.2722C14.7416 10.8431 14.582 10.4212 14.4516 10.0137C14.8796 9.9209 15.336 9.845 15.8115 9.7874C15.4933 10.2686 15.1985 10.7642 14.9282 11.2722ZM15.8252 14.2328C15.334 14.1797 14.8706 14.1076 14.4428 14.0173C14.5752 13.6027 14.7384 13.1718 14.929 12.7334C15.203 13.2466 15.5023 13.7471 15.8252 14.2328ZM18.0249 15.9957C17.7212 15.678 17.4182 15.3265 17.1224 14.9485C17.7164 14.9711 18.3116 14.9712 18.9055 14.9455C18.6134 15.3304 18.3185 15.6823 18.0249 15.9957ZM21.0834 12.7111C21.2838 13.1542 21.4529 13.5828 21.5871 13.9904C21.1522 14.0867 20.6826 14.1642 20.1878 14.2217C20.5075 13.7303 20.8075 13.2268 21.0834 12.7111ZM19.3736 14.297C18.465 14.36 17.5508 14.3593 16.6419 14.3022C16.1255 13.5707 15.6657 12.8015 15.2688 12.0029C15.6638 11.2059 16.1202 10.4382 16.6342 9.7079C17.5438 9.64125 18.4589 9.64105 19.3685 9.7083C19.878 10.4385 20.3337 11.2043 20.7379 11.994C20.3386 12.7906 19.8797 13.5599 19.3736 14.297ZM21.4151 6.2333C22.3503 6.75627 21.934 8.61363 21.7297 9.4213C21.1074 9.28205 20.4317 9.17845 19.7241 9.11405C19.3119 8.54502 18.8849 8.02759 18.4562 7.57974C19.0847 6.9922 20.489 5.71544 21.4151 6.2333Z" fill="#53C1DE"/>
<path d="M36.864 16.5V7.62H40.32C40.96 7.62 41.504 7.74 41.952 7.98C42.408 8.212 42.752 8.532 42.984 8.94C43.224 9.34 43.344 9.792 43.344 10.296C43.344 10.864 43.192 11.372 42.888 11.82C42.584 12.26 42.144 12.58 41.568 12.78L43.608 16.5H41.796L39.9 12.972H38.496V16.5H36.864ZM40.296 9.036H38.496V11.64H40.296C40.752 11.64 41.1 11.512 41.34 11.256C41.58 10.992 41.7 10.684 41.7 10.332C41.7 9.98 41.58 9.676 41.34 9.42C41.1 9.164 40.752 9.036 40.296 9.036ZM47.5855 16.62C47.0415 16.62 46.5695 16.528 46.1695 16.344C45.7775 16.152 45.4495 15.9 45.1855 15.588C44.9295 15.268 44.7375 14.912 44.6095 14.52C44.4815 14.128 44.4175 13.728 44.4175 13.32C44.4175 12.912 44.4775 12.516 44.5975 12.132C44.7255 11.74 44.9135 11.384 45.1615 11.064C45.4175 10.744 45.7415 10.492 46.1335 10.308C46.5255 10.116 46.9895 10.02 47.5255 10.02C48.1015 10.02 48.6095 10.148 49.0495 10.404C49.4895 10.66 49.8335 11.036 50.0815 11.532C50.3295 12.02 50.4535 12.628 50.4535 13.356V13.764H46.0255C46.0495 14.196 46.1975 14.572 46.4695 14.892C46.7415 15.204 47.1135 15.36 47.5855 15.36C47.8575 15.36 48.0815 15.316 48.2575 15.228C48.4335 15.14 48.5695 15.04 48.6655 14.928C48.7615 14.808 48.8295 14.708 48.8695 14.628C48.9095 14.54 48.9295 14.496 48.9295 14.496H50.4055C50.4055 14.496 50.3855 14.568 50.3455 14.712C50.3055 14.848 50.2295 15.024 50.1175 15.24C50.0135 15.448 49.8575 15.66 49.6495 15.876C49.4415 16.084 49.1695 16.26 48.8335 16.404C48.4975 16.548 48.0815 16.62 47.5855 16.62ZM46.0255 12.72H48.9175C48.8935 12.224 48.7455 11.856 48.4735 11.616C48.2015 11.376 47.8815 11.256 47.5135 11.256C47.1055 11.256 46.7655 11.388 46.4935 11.652C46.2215 11.908 46.0655 12.264 46.0255 12.72ZM54.5149 10.02C54.9229 10.02 55.2589 10.088 55.5229 10.224C55.7869 10.352 55.9949 10.496 56.1469 10.656C56.2989 10.808 56.4029 10.932 56.4589 11.028H56.5309V10.14H58.1269V16.5H56.5309V15.612H56.4589C56.4029 15.708 56.2989 15.836 56.1469 15.996C55.9949 16.156 55.7869 16.3 55.5229 16.428C55.2589 16.556 54.9229 16.62 54.5149 16.62C54.0429 16.62 53.6309 16.528 53.2789 16.344C52.9269 16.152 52.6309 15.9 52.3909 15.588C52.1589 15.268 51.9829 14.912 51.8629 14.52C51.7509 14.128 51.6949 13.728 51.6949 13.32C51.6949 12.912 51.7509 12.512 51.8629 12.12C51.9829 11.728 52.1589 11.376 52.3909 11.064C52.6309 10.744 52.9269 10.492 53.2789 10.308C53.6309 10.116 54.0429 10.02 54.5149 10.02ZM54.9349 11.328C54.5749 11.328 54.2709 11.428 54.0229 11.628C53.7829 11.82 53.6029 12.068 53.4829 12.372C53.3629 12.676 53.3029 12.992 53.3029 13.32C53.3029 13.648 53.3629 13.964 53.4829 14.268C53.6029 14.572 53.7829 14.824 54.0229 15.024C54.2709 15.216 54.5749 15.312 54.9349 15.312C55.2949 15.312 55.5949 15.216 55.8349 15.024C56.0749 14.824 56.2549 14.572 56.3749 14.268C56.4949 13.964 56.5549 13.648 56.5549 13.32C56.5549 12.992 56.4949 12.676 56.3749 12.372C56.2549 12.068 56.0749 11.82 55.8349 11.628C55.5949 11.428 55.2949 11.328 54.9349 11.328ZM62.8219 16.62C62.2779 16.62 61.8019 16.528 61.3939 16.344C60.9859 16.152 60.6459 15.9 60.3739 15.588C60.1019 15.268 59.8979 14.912 59.7619 14.52C59.6339 14.128 59.5699 13.728 59.5699 13.32C59.5699 12.912 59.6339 12.512 59.7619 12.12C59.8979 11.728 60.0979 11.376 60.3619 11.064C60.6339 10.744 60.9739 10.492 61.3819 10.308C61.7899 10.116 62.2699 10.02 62.8219 10.02C63.3659 10.02 63.8179 10.1 64.1779 10.26C64.5379 10.42 64.8219 10.62 65.0299 10.86C65.2459 11.1 65.4059 11.34 65.5099 11.58C65.6139 11.812 65.6819 12.008 65.7139 12.168C65.7459 12.328 65.7619 12.408 65.7619 12.408H64.2619C64.2619 12.408 64.2459 12.356 64.2139 12.252C64.1819 12.14 64.1179 12.012 64.0219 11.868C63.9259 11.724 63.7819 11.596 63.5899 11.484C63.4059 11.372 63.1579 11.316 62.8459 11.316C62.4779 11.316 62.1659 11.412 61.9099 11.604C61.6619 11.788 61.4739 12.032 61.3459 12.336C61.2179 12.64 61.1539 12.968 61.1539 13.32C61.1539 13.672 61.2179 14 61.3459 14.304C61.4739 14.608 61.6619 14.856 61.9099 15.048C62.1659 15.232 62.4779 15.324 62.8459 15.324C63.1579 15.324 63.4059 15.268 63.5899 15.156C63.7819 15.044 63.9259 14.916 64.0219 14.772C64.1179 14.628 64.1819 14.504 64.2139 14.4C64.2459 14.288 64.2619 14.232 64.2619 14.232H65.7619C65.7619 14.232 65.7459 14.312 65.7139 14.472C65.6819 14.632 65.6139 14.832 65.5099 15.072C65.4059 15.304 65.2459 15.54 65.0299 15.78C64.8219 16.02 64.5379 16.22 64.1779 16.38C63.8179 16.54 63.3659 16.62 62.8219 16.62ZM70.0222 16.62C69.5902 16.62 69.2342 16.556 68.9542 16.428C68.6742 16.3 68.4542 16.132 68.2942 15.924C68.1422 15.716 68.0342 15.488 67.9702 15.24C67.9062 14.992 67.8742 14.748 67.8742 14.508V11.424H66.7822V10.14H67.8742V8.556H69.4702V10.14H70.8982V11.424H69.4702V14.472C69.4702 15.04 69.7902 15.324 70.4302 15.324C70.5822 15.324 70.7222 15.316 70.8502 15.3C70.9862 15.276 71.0542 15.264 71.0542 15.264V16.512C71.0542 16.512 70.9502 16.528 70.7422 16.56C70.5422 16.6 70.3022 16.62 70.0222 16.62Z" fill="#EBE3D5"/>
</svg>
