<svg width="107" height="24" viewBox="0 0 107 24" fill="none" xmlns="http://www.w3.org/2000/svg">
<rect width="107" height="24" fill="#181C14"/>
<path d="M18.31 19L17.9345 18.8755C17.9345 18.8755 17.9845 16.9755 17.297 16.842C16.847 16.318 17.3635 -5.52849 19.0085 16.7675C18.6964 16.9258 18.4576 17.1987 18.342 17.529C18.2801 18.0169 18.2693 18.5099 18.31 19Z" fill="url(#paint0_linear_64_96)"/>
<path d="M18.513 17.1645C19.5128 16.4119 20.2785 15.391 20.721 14.2204C21.1635 13.0499 21.2648 11.7778 21.013 10.552C20.278 7.3095 18.5375 6.2435 18.35 5.8365C18.1882 5.58306 18.0501 5.31527 17.9375 5.0365L18.076 14.071C18.076 14.071 17.789 16.832 18.513 17.1645Z" fill="url(#paint1_linear_64_96)"/>
<path d="M17.7436 17.2845C17.7436 17.2845 14.6831 15.2 14.8601 11.5125C14.8766 10.4008 15.1315 9.30563 15.6075 8.30091C16.0836 7.29618 16.7697 6.40532 17.6196 5.6885C17.7189 5.60412 17.7978 5.49834 17.8503 5.37909C17.9029 5.25984 17.9278 5.13023 17.9231 5C18.1136 5.41 18.0826 11.1215 18.1026 11.7895C18.1801 14.388 17.9581 16.794 17.7436 17.2845Z" fill="url(#paint2_linear_64_96)"/>
<path d="M36.864 16.5V7.62H39.036L41.256 12.432L43.524 7.62H45.66V16.5H44.052V10.08L42.012 14.352H40.5L38.472 10.056V16.5H36.864ZM50.3886 16.62C49.6926 16.62 49.1006 16.464 48.6126 16.152C48.1246 15.84 47.7526 15.436 47.4966 14.94C47.2486 14.436 47.1246 13.896 47.1246 13.32C47.1246 12.744 47.2486 12.208 47.4966 11.712C47.7526 11.208 48.1246 10.8 48.6126 10.488C49.1006 10.176 49.6926 10.02 50.3886 10.02C51.0926 10.02 51.6846 10.176 52.1646 10.488C52.6526 10.8 53.0206 11.208 53.2686 11.712C53.5246 12.208 53.6526 12.744 53.6526 13.32C53.6526 13.896 53.5246 14.436 53.2686 14.94C53.0206 15.436 52.6526 15.84 52.1646 16.152C51.6846 16.464 51.0926 16.62 50.3886 16.62ZM50.3886 15.288C50.7486 15.288 51.0486 15.196 51.2886 15.012C51.5366 14.828 51.7246 14.588 51.8526 14.292C51.9806 13.988 52.0446 13.664 52.0446 13.32C52.0446 12.968 51.9806 12.644 51.8526 12.348C51.7246 12.052 51.5366 11.812 51.2886 11.628C51.0486 11.444 50.7486 11.352 50.3886 11.352C50.0366 11.352 49.7366 11.444 49.4886 11.628C49.2406 11.812 49.0526 12.052 48.9246 12.348C48.7966 12.644 48.7326 12.968 48.7326 13.32C48.7326 13.664 48.7966 13.988 48.9246 14.292C49.0526 14.588 49.2406 14.828 49.4886 15.012C49.7366 15.196 50.0366 15.288 50.3886 15.288ZM55.0018 16.5V10.14H56.5978V11.052H56.6698C56.7338 10.94 56.8338 10.804 56.9698 10.644C57.1058 10.476 57.2938 10.332 57.5338 10.212C57.7738 10.084 58.0778 10.02 58.4458 10.02C58.9338 10.02 59.3338 10.132 59.6458 10.356C59.9658 10.572 60.2018 10.86 60.3538 11.22C60.5138 11.58 60.5938 11.968 60.5938 12.384V16.5H58.9978V12.6C58.9978 12.256 58.9018 11.96 58.7098 11.712C58.5178 11.464 58.2298 11.34 57.8458 11.34C57.5498 11.34 57.3098 11.416 57.1258 11.568C56.9418 11.712 56.8058 11.9 56.7178 12.132C56.6378 12.364 56.5978 12.608 56.5978 12.864V16.5H55.0018ZM65.2251 19.044C64.6571 19.044 64.1851 18.968 63.8091 18.816C63.4411 18.672 63.1491 18.492 62.9331 18.276C62.7171 18.068 62.5571 17.856 62.4531 17.64C62.3491 17.424 62.2811 17.244 62.2491 17.1C62.2171 16.956 62.2011 16.884 62.2011 16.884H63.7611C63.7611 16.884 63.7771 16.928 63.8091 17.016C63.8411 17.104 63.9051 17.204 64.0011 17.316C64.1051 17.436 64.2531 17.54 64.4451 17.628C64.6371 17.716 64.8931 17.76 65.2131 17.76C65.7731 17.76 66.1771 17.6 66.4251 17.28C66.6731 16.96 66.7971 16.572 66.7971 16.116V15.408H66.7251C66.6371 15.544 66.5091 15.692 66.3411 15.852C66.1811 16.012 65.9691 16.148 65.7051 16.26C65.4491 16.372 65.1371 16.428 64.7691 16.428C64.2971 16.428 63.8851 16.336 63.5331 16.152C63.1811 15.968 62.8851 15.724 62.6451 15.42C62.4051 15.116 62.2251 14.776 62.1051 14.4C61.9931 14.016 61.9371 13.624 61.9371 13.224C61.9371 12.824 61.9931 12.436 62.1051 12.06C62.2251 11.676 62.4051 11.332 62.6451 11.028C62.8851 10.716 63.1811 10.472 63.5331 10.296C63.8851 10.112 64.2971 10.02 64.7691 10.02C65.1371 10.02 65.4491 10.076 65.7051 10.188C65.9691 10.3 66.1811 10.436 66.3411 10.596C66.5091 10.748 66.6371 10.892 66.7251 11.028H66.7971V10.14H68.3931V16.104C68.3931 16.656 68.2771 17.152 68.0451 17.592C67.8131 18.04 67.4611 18.392 66.9891 18.648C66.5251 18.912 65.9371 19.044 65.2251 19.044ZM65.1891 15.144C65.5491 15.144 65.8491 15.052 66.0891 14.868C66.3291 14.676 66.5091 14.436 66.6291 14.148C66.7491 13.852 66.8091 13.544 66.8091 13.224C66.8091 12.896 66.7491 12.588 66.6291 12.3C66.5091 12.004 66.3291 11.764 66.0891 11.58C65.8491 11.396 65.5491 11.304 65.1891 11.304C64.8211 11.304 64.5131 11.396 64.2651 11.58C64.0251 11.764 63.8451 12.004 63.7251 12.3C63.6051 12.588 63.5451 12.896 63.5451 13.224C63.5451 13.544 63.6051 13.852 63.7251 14.148C63.8451 14.436 64.0251 14.676 64.2651 14.868C64.5131 15.052 64.8211 15.144 65.1891 15.144ZM72.912 16.62C72.216 16.62 71.624 16.464 71.136 16.152C70.648 15.84 70.276 15.436 70.02 14.94C69.772 14.436 69.648 13.896 69.648 13.32C69.648 12.744 69.772 12.208 70.02 11.712C70.276 11.208 70.648 10.8 71.136 10.488C71.624 10.176 72.216 10.02 72.912 10.02C73.616 10.02 74.208 10.176 74.688 10.488C75.176 10.8 75.544 11.208 75.792 11.712C76.048 12.208 76.176 12.744 76.176 13.32C76.176 13.896 76.048 14.436 75.792 14.94C75.544 15.436 75.176 15.84 74.688 16.152C74.208 16.464 73.616 16.62 72.912 16.62ZM72.912 15.288C73.272 15.288 73.572 15.196 73.812 15.012C74.06 14.828 74.248 14.588 74.376 14.292C74.504 13.988 74.568 13.664 74.568 13.32C74.568 12.968 74.504 12.644 74.376 12.348C74.248 12.052 74.06 11.812 73.812 11.628C73.572 11.444 73.272 11.352 72.912 11.352C72.56 11.352 72.26 11.444 72.012 11.628C71.764 11.812 71.576 12.052 71.448 12.348C71.32 12.644 71.256 12.968 71.256 13.32C71.256 13.664 71.32 13.988 71.448 14.292C71.576 14.588 71.764 14.828 72.012 15.012C72.26 15.196 72.56 15.288 72.912 15.288ZM80.4578 16.5V7.62H83.6498C84.3698 7.62 84.9978 7.748 85.5338 8.004C86.0778 8.252 86.5298 8.588 86.8898 9.012C87.2498 9.436 87.5178 9.912 87.6938 10.44C87.8778 10.968 87.9698 11.508 87.9698 12.06C87.9698 12.612 87.8778 13.152 87.6938 13.68C87.5178 14.208 87.2498 14.684 86.8898 15.108C86.5298 15.532 86.0778 15.872 85.5338 16.128C84.9978 16.376 84.3698 16.5 83.6498 16.5H80.4578ZM83.5778 9.048H82.0898V15.06H83.5778C84.2018 15.06 84.7178 14.916 85.1258 14.628C85.5338 14.332 85.8378 13.956 86.0378 13.5C86.2378 13.036 86.3378 12.552 86.3378 12.048C86.3378 11.552 86.2378 11.076 86.0378 10.62C85.8378 10.156 85.5338 9.78 85.1258 9.492C84.7178 9.196 84.2018 9.048 83.5778 9.048ZM89.3757 16.5V7.62H93.2517C93.8197 7.62 94.3037 7.72 94.7037 7.92C95.1037 8.12 95.4077 8.388 95.6157 8.724C95.8317 9.06 95.9397 9.428 95.9397 9.828C95.9397 10.236 95.8637 10.572 95.7117 10.836C95.5677 11.1 95.3917 11.308 95.1837 11.46C94.9837 11.604 94.7997 11.704 94.6317 11.76V11.844C94.8397 11.9 95.0717 12.008 95.3277 12.168C95.5917 12.328 95.8197 12.556 96.0117 12.852C96.2037 13.14 96.2997 13.516 96.2997 13.98C96.2997 14.396 96.1997 14.8 95.9997 15.192C95.7997 15.576 95.4837 15.892 95.0517 16.14C94.6197 16.38 94.0477 16.5 93.3357 16.5H89.3757ZM93.0357 9H91.0077V11.316H93.0357C93.4997 11.316 93.8357 11.2 94.0437 10.968C94.2517 10.736 94.3557 10.464 94.3557 10.152C94.3557 9.848 94.2517 9.58 94.0437 9.348C93.8357 9.116 93.4997 9 93.0357 9ZM93.1557 12.564H91.0077V15.12H93.1557C93.6837 15.12 94.0677 14.992 94.3077 14.736C94.5477 14.48 94.6677 14.18 94.6677 13.836C94.6677 13.5 94.5477 13.204 94.3077 12.948C94.0677 12.692 93.6837 12.564 93.1557 12.564Z" fill="#EBE3D5"/>
<defs>
<linearGradient id="paint0_linear_64_96" x1="15.7858" y1="12.1262" x2="20.1017" y2="13.5907" gradientUnits="userSpaceOnUse">
<stop offset="0.231" stop-color="#999875"/>
<stop offset="0.563" stop-color="#9B9977"/>
<stop offset="0.683" stop-color="#A09F7E"/>
<stop offset="0.768" stop-color="#A9A889"/>
<stop offset="0.837" stop-color="#B7B69A"/>
<stop offset="0.896" stop-color="#C9C7B0"/>
<stop offset="0.948" stop-color="#DEDDCB"/>
<stop offset="0.994" stop-color="#F8F6EB"/>
<stop offset="1" stop-color="#FBF9EF"/>
</linearGradient>
<linearGradient id="paint1_linear_64_96" x1="17.3685" y1="4.97194" x2="19.2765" y2="16.8864" gradientUnits="userSpaceOnUse">
<stop stop-color="#48A547"/>
<stop offset="1" stop-color="#3F9143"/>
</linearGradient>
<linearGradient id="paint2_linear_64_96" x1="14.5968" y1="11.8775" x2="19.7171" y2="10.1627" gradientUnits="userSpaceOnUse">
<stop stop-color="#41A247"/>
<stop offset="0.352" stop-color="#4BA74B"/>
<stop offset="0.956" stop-color="#67B554"/>
<stop offset="1" stop-color="#69B655"/>
</linearGradient>
</defs>
</svg>
