<svg width="110" height="24" viewBox="0 0 110 24" fill="none" xmlns="http://www.w3.org/2000/svg">
<rect width="110" height="24" fill="#181C14"/>
<g clip-path="url(#clip0_59_24)">
<path d="M10 4H26V20H10V4Z" fill="#F7DF1E"/>
<path d="M14.2069 17.3708L15.4314 16.6298C15.6676 17.0486 15.8825 17.403 16.3979 17.403C16.892 17.403 17.2035 17.2097 17.2035 16.458V11.3456H18.707V16.4792C18.707 18.0366 17.7942 18.7454 16.4624 18.7454C15.2595 18.7454 14.5613 18.1224 14.2069 17.3707" fill="black"/>
<path d="M19.5238 17.2096L20.7481 16.5007C21.0704 17.0271 21.4892 17.4137 22.2303 17.4137C22.8533 17.4137 23.2506 17.1022 23.2506 16.6726C23.2506 16.157 22.8425 15.9744 22.1551 15.6738L21.7793 15.5126C20.6944 15.0509 19.9748 14.4709 19.9748 13.2465C19.9748 12.1188 20.834 11.2595 22.1766 11.2595C23.1325 11.2595 23.8199 11.5925 24.3138 12.4625L23.1432 13.2142C22.8854 12.7524 22.6062 12.5699 22.1766 12.5699C21.7363 12.5699 21.457 12.8491 21.457 13.2142C21.457 13.6653 21.7363 13.848 22.3806 14.1272L22.7565 14.2883C24.0346 14.8361 24.7542 15.3945 24.7542 16.6511C24.7542 18.0044 23.6909 18.7454 22.2625 18.7454C20.8663 18.7454 19.9641 18.0796 19.5238 17.2096Z" fill="black"/>
</g>
<path d="M37.704 16.62C37.376 16.62 37.088 16.604 36.84 16.572C36.6 16.54 36.48 16.524 36.48 16.524V15.144C36.48 15.144 36.58 15.156 36.78 15.18C36.988 15.196 37.204 15.204 37.428 15.204C37.996 15.204 38.448 15.064 38.784 14.784C39.128 14.504 39.3 14.016 39.3 13.32V7.62H40.92V13.344C40.92 13.968 40.808 14.528 40.584 15.024C40.36 15.52 40.008 15.912 39.528 16.2C39.056 16.48 38.448 16.62 37.704 16.62ZM45.2571 10.02C45.6651 10.02 46.0011 10.088 46.2651 10.224C46.5291 10.352 46.7371 10.496 46.8891 10.656C47.0411 10.808 47.1451 10.932 47.2011 11.028H47.2731V10.14H48.8691V16.5H47.2731V15.612H47.2011C47.1451 15.708 47.0411 15.836 46.8891 15.996C46.7371 16.156 46.5291 16.3 46.2651 16.428C46.0011 16.556 45.6651 16.62 45.2571 16.62C44.7851 16.62 44.3731 16.528 44.0211 16.344C43.6691 16.152 43.3731 15.9 43.1331 15.588C42.9011 15.268 42.7251 14.912 42.6051 14.52C42.4931 14.128 42.4371 13.728 42.4371 13.32C42.4371 12.912 42.4931 12.512 42.6051 12.12C42.7251 11.728 42.9011 11.376 43.1331 11.064C43.3731 10.744 43.6691 10.492 44.0211 10.308C44.3731 10.116 44.7851 10.02 45.2571 10.02ZM45.6771 11.328C45.3171 11.328 45.0131 11.428 44.7651 11.628C44.5251 11.82 44.3451 12.068 44.2251 12.372C44.1051 12.676 44.0451 12.992 44.0451 13.32C44.0451 13.648 44.1051 13.964 44.2251 14.268C44.3451 14.572 44.5251 14.824 44.7651 15.024C45.0131 15.216 45.3171 15.312 45.6771 15.312C46.0371 15.312 46.3371 15.216 46.5771 15.024C46.8171 14.824 46.9971 14.572 47.1171 14.268C47.2371 13.964 47.2971 13.648 47.2971 13.32C47.2971 12.992 47.2371 12.676 47.1171 12.372C46.9971 12.068 46.8171 11.82 46.5771 11.628C46.3371 11.428 46.0371 11.328 45.6771 11.328ZM52.0708 16.5L49.7068 10.14H51.3268L52.9228 14.676L54.4948 10.14H56.1148L53.7388 16.5H52.0708ZM59.6125 10.02C60.0205 10.02 60.3565 10.088 60.6205 10.224C60.8845 10.352 61.0925 10.496 61.2445 10.656C61.3965 10.808 61.5005 10.932 61.5565 11.028H61.6285V10.14H63.2245V16.5H61.6285V15.612H61.5565C61.5005 15.708 61.3965 15.836 61.2445 15.996C61.0925 16.156 60.8845 16.3 60.6205 16.428C60.3565 16.556 60.0205 16.62 59.6125 16.62C59.1405 16.62 58.7285 16.528 58.3765 16.344C58.0245 16.152 57.7285 15.9 57.4885 15.588C57.2565 15.268 57.0805 14.912 56.9605 14.52C56.8485 14.128 56.7925 13.728 56.7925 13.32C56.7925 12.912 56.8485 12.512 56.9605 12.12C57.0805 11.728 57.2565 11.376 57.4885 11.064C57.7285 10.744 58.0245 10.492 58.3765 10.308C58.7285 10.116 59.1405 10.02 59.6125 10.02ZM60.0325 11.328C59.6725 11.328 59.3685 11.428 59.1205 11.628C58.8805 11.82 58.7005 12.068 58.5805 12.372C58.4605 12.676 58.4005 12.992 58.4005 13.32C58.4005 13.648 58.4605 13.964 58.5805 14.268C58.7005 14.572 58.8805 14.824 59.1205 15.024C59.3685 15.216 59.6725 15.312 60.0325 15.312C60.3925 15.312 60.6925 15.216 60.9325 15.024C61.1725 14.824 61.3525 14.572 61.4725 14.268C61.5925 13.964 61.6525 13.648 61.6525 13.32C61.6525 12.992 61.5925 12.676 61.4725 12.372C61.3525 12.068 61.1725 11.82 60.9325 11.628C60.6925 11.428 60.3925 11.328 60.0325 11.328ZM67.2847 16.62C66.7647 16.62 66.3367 16.552 66.0007 16.416C65.6647 16.272 65.3967 16.096 65.1967 15.888C65.0047 15.672 64.8607 15.46 64.7647 15.252C64.6687 15.044 64.6047 14.872 64.5727 14.736C64.5487 14.592 64.5367 14.52 64.5367 14.52H66.0487C66.0487 14.52 66.0607 14.564 66.0847 14.652C66.1167 14.74 66.1727 14.844 66.2527 14.964C66.3407 15.076 66.4727 15.176 66.6487 15.264C66.8247 15.352 67.0567 15.396 67.3447 15.396C67.6887 15.396 67.9367 15.324 68.0887 15.18C68.2407 15.028 68.3167 14.86 68.3167 14.676C68.3167 14.5 68.2487 14.36 68.1127 14.256C67.9847 14.144 67.7927 14.06 67.5367 14.004L66.6607 13.824C66.3087 13.752 65.9807 13.648 65.6767 13.512C65.3727 13.368 65.1247 13.176 64.9327 12.936C64.7407 12.688 64.6447 12.372 64.6447 11.988C64.6447 11.42 64.8607 10.952 65.2927 10.584C65.7247 10.208 66.3127 10.02 67.0567 10.02C67.5287 10.02 67.9167 10.084 68.2207 10.212C68.5327 10.34 68.7807 10.5 68.9647 10.692C69.1567 10.884 69.2967 11.076 69.3847 11.268C69.4807 11.46 69.5407 11.624 69.5647 11.76C69.5967 11.888 69.6127 11.952 69.6127 11.952H68.1487C68.1487 11.952 68.1367 11.916 68.1127 11.844C68.0887 11.764 68.0367 11.676 67.9567 11.58C67.8847 11.484 67.7727 11.4 67.6207 11.328C67.4767 11.248 67.2807 11.208 67.0327 11.208C66.6967 11.208 66.4567 11.28 66.3127 11.424C66.1767 11.568 66.1087 11.72 66.1087 11.88C66.1087 12.056 66.1847 12.192 66.3367 12.288C66.4887 12.384 66.6847 12.456 66.9247 12.504L67.7527 12.684C68.3447 12.804 68.8287 13.012 69.2047 13.308C69.5887 13.604 69.7807 14.032 69.7807 14.592C69.7807 14.968 69.6807 15.312 69.4807 15.624C69.2887 15.928 69.0047 16.172 68.6287 16.356C68.2607 16.532 67.8127 16.62 67.2847 16.62ZM74.1305 16.62C73.5865 16.62 73.1105 16.528 72.7025 16.344C72.2945 16.152 71.9545 15.9 71.6825 15.588C71.4105 15.268 71.2065 14.912 71.0705 14.52C70.9425 14.128 70.8785 13.728 70.8785 13.32C70.8785 12.912 70.9425 12.512 71.0705 12.12C71.2065 11.728 71.4065 11.376 71.6705 11.064C71.9425 10.744 72.2825 10.492 72.6905 10.308C73.0985 10.116 73.5785 10.02 74.1305 10.02C74.6745 10.02 75.1265 10.1 75.4865 10.26C75.8465 10.42 76.1305 10.62 76.3385 10.86C76.5545 11.1 76.7145 11.34 76.8185 11.58C76.9225 11.812 76.9905 12.008 77.0225 12.168C77.0545 12.328 77.0705 12.408 77.0705 12.408H75.5705C75.5705 12.408 75.5545 12.356 75.5225 12.252C75.4905 12.14 75.4265 12.012 75.3305 11.868C75.2345 11.724 75.0905 11.596 74.8985 11.484C74.7145 11.372 74.4665 11.316 74.1545 11.316C73.7865 11.316 73.4745 11.412 73.2185 11.604C72.9705 11.788 72.7825 12.032 72.6545 12.336C72.5265 12.64 72.4625 12.968 72.4625 13.32C72.4625 13.672 72.5265 14 72.6545 14.304C72.7825 14.608 72.9705 14.856 73.2185 15.048C73.4745 15.232 73.7865 15.324 74.1545 15.324C74.4665 15.324 74.7145 15.268 74.8985 15.156C75.0905 15.044 75.2345 14.916 75.3305 14.772C75.4265 14.628 75.4905 14.504 75.5225 14.4C75.5545 14.288 75.5705 14.232 75.5705 14.232H77.0705C77.0705 14.232 77.0545 14.312 77.0225 14.472C76.9905 14.632 76.9225 14.832 76.8185 15.072C76.7145 15.304 76.5545 15.54 76.3385 15.78C76.1305 16.02 75.8465 16.22 75.4865 16.38C75.1265 16.54 74.6745 16.62 74.1305 16.62ZM78.4628 16.5V10.14H80.0468V11.016H80.1068C80.2188 10.768 80.4028 10.54 80.6588 10.332C80.9148 10.124 81.2988 10.02 81.8108 10.02C81.9708 10.02 82.1028 10.032 82.2068 10.056C82.3108 10.072 82.3628 10.08 82.3628 10.08V11.628C82.3628 11.628 82.3028 11.62 82.1828 11.604C82.0708 11.588 81.9308 11.58 81.7628 11.58C81.2028 11.58 80.7788 11.736 80.4908 12.048C80.2028 12.36 80.0588 12.864 80.0588 13.56V16.5H78.4628ZM84.6024 9.156C84.3224 9.156 84.0904 9.064 83.9064 8.88C83.7304 8.696 83.6424 8.476 83.6424 8.22C83.6424 7.964 83.7304 7.744 83.9064 7.56C84.0904 7.376 84.3224 7.284 84.6024 7.284C84.8824 7.284 85.1144 7.376 85.2984 7.56C85.4824 7.744 85.5744 7.964 85.5744 8.22C85.5744 8.476 85.4824 8.696 85.2984 8.88C85.1144 9.064 84.8824 9.156 84.6024 9.156ZM83.8104 16.5V10.14H85.4064V16.5H83.8104ZM87.1843 18.852V10.14H88.7803V11.028H88.8643C88.9203 10.932 89.0203 10.804 89.1643 10.644C89.3163 10.484 89.5243 10.34 89.7883 10.212C90.0523 10.084 90.3883 10.02 90.7963 10.02C91.2763 10.02 91.6923 10.116 92.0443 10.308C92.3963 10.492 92.6883 10.744 92.9203 11.064C93.1523 11.376 93.3243 11.728 93.4363 12.12C93.5563 12.512 93.6163 12.912 93.6163 13.32C93.6163 13.728 93.5563 14.128 93.4363 14.52C93.3243 14.912 93.1523 15.268 92.9203 15.588C92.6883 15.9 92.3963 16.152 92.0443 16.344C91.6923 16.528 91.2763 16.62 90.7963 16.62C90.3883 16.62 90.0523 16.556 89.7883 16.428C89.5243 16.292 89.3163 16.144 89.1643 15.984C89.0203 15.824 88.9203 15.7 88.8643 15.612H88.7803V18.852H87.1843ZM88.7563 13.32C88.7563 13.648 88.8163 13.964 88.9363 14.268C89.0563 14.572 89.2363 14.824 89.4763 15.024C89.7163 15.216 90.0163 15.312 90.3763 15.312C90.7443 15.312 91.0483 15.216 91.2883 15.024C91.5283 14.824 91.7083 14.572 91.8283 14.268C91.9483 13.964 92.0083 13.648 92.0083 13.32C92.0083 12.992 91.9483 12.676 91.8283 12.372C91.7083 12.068 91.5283 11.82 91.2883 11.628C91.0483 11.428 90.7443 11.328 90.3763 11.328C90.0163 11.328 89.7163 11.428 89.4763 11.628C89.2363 11.82 89.0563 12.068 88.9363 12.372C88.8163 12.676 88.7563 12.992 88.7563 13.32ZM97.7604 16.62C97.3284 16.62 96.9724 16.556 96.6924 16.428C96.4124 16.3 96.1924 16.132 96.0324 15.924C95.8804 15.716 95.7724 15.488 95.7084 15.24C95.6444 14.992 95.6124 14.748 95.6124 14.508V11.424H94.5204V10.14H95.6124V8.556H97.2084V10.14H98.6364V11.424H97.2084V14.472C97.2084 15.04 97.5284 15.324 98.1684 15.324C98.3204 15.324 98.4604 15.316 98.5884 15.3C98.7244 15.276 98.7924 15.264 98.7924 15.264V16.512C98.7924 16.512 98.6884 16.528 98.4804 16.56C98.2804 16.6 98.0404 16.62 97.7604 16.62Z" fill="#EBE3D5"/>
<defs>
<clipPath id="clip0_59_24">
<rect width="16" height="16" fill="white" transform="translate(10 4)"/>
</clipPath>
</defs>
</svg>
