<svg width="72" height="24" viewBox="0 0 72 24" fill="none" xmlns="http://www.w3.org/2000/svg">
<rect width="72" height="24" fill="#181C14"/>
<path d="M12.951 17.6005L11.828 5H24.172L23.0475 17.5985L17.9925 19L12.951 17.6005Z" fill="#1572B6"/>
<path d="M18 17.929L22.085 16.7965L23.046 6.03052H18V17.929Z" fill="#33A9DC"/>
<path d="M18 10.5955H20.045L20.186 9.01303H18V7.46753H18.0055H21.875L21.838 7.88203L21.4585 12.141H18V10.5955Z" fill="white"/>
<path d="M18.0095 14.609L18.0025 14.611L16.2815 14.146L16.1715 12.9135H15.335H14.62L14.8365 15.34L18.002 16.219L18.0095 16.217V14.609Z" fill="#EBEBEB"/>
<path d="M19.9135 12.0754L19.7275 14.1449L18.004 14.6099V16.2179L21.172 15.3399L21.1955 15.0789L21.464 12.0754H19.9135Z" fill="white"/>
<path d="M18.0055 7.46753V8.42753V9.00903V9.01303H14.2775H14.2725L14.2415 8.66553L14.171 7.88203L14.134 7.46753H18.0055Z" fill="#EBEBEB"/>
<path d="M18 10.5955V11.5555V12.137V12.141H16.3055H16.3005L16.2695 11.7935L16.1995 11.01L16.1625 10.5955H18Z" fill="#EBEBEB"/>
<path d="M40.872 16.62C40.152 16.62 39.52 16.492 38.976 16.236C38.44 15.972 37.988 15.624 37.62 15.192C37.26 14.752 36.988 14.264 36.804 13.728C36.628 13.184 36.54 12.628 36.54 12.06C36.54 11.492 36.628 10.936 36.804 10.392C36.988 9.848 37.26 9.36 37.62 8.928C37.988 8.488 38.44 8.14 38.976 7.884C39.52 7.628 40.152 7.5 40.872 7.5C41.472 7.5 41.988 7.576 42.42 7.728C42.852 7.88 43.212 8.076 43.5 8.316C43.788 8.556 44.016 8.812 44.184 9.084C44.36 9.356 44.492 9.612 44.58 9.852C44.668 10.092 44.724 10.288 44.748 10.44C44.78 10.592 44.796 10.668 44.796 10.668H43.176C43.176 10.668 43.16 10.612 43.128 10.5C43.104 10.388 43.048 10.248 42.96 10.08C42.88 9.904 42.756 9.732 42.588 9.564C42.42 9.396 42.196 9.256 41.916 9.144C41.644 9.032 41.304 8.976 40.896 8.976C40.448 8.976 40.056 9.064 39.72 9.24C39.384 9.408 39.104 9.64 38.88 9.936C38.656 10.232 38.488 10.564 38.376 10.932C38.272 11.3 38.22 11.676 38.22 12.06C38.22 12.444 38.272 12.82 38.376 13.188C38.488 13.548 38.656 13.876 38.88 14.172C39.104 14.468 39.384 14.704 39.72 14.88C40.056 15.056 40.448 15.144 40.896 15.144C41.304 15.144 41.644 15.088 41.916 14.976C42.196 14.856 42.42 14.712 42.588 14.544C42.756 14.376 42.88 14.208 42.96 14.04C43.048 13.872 43.104 13.732 43.128 13.62C43.16 13.5 43.176 13.44 43.176 13.44H44.796C44.796 13.44 44.78 13.516 44.748 13.668C44.724 13.82 44.668 14.02 44.58 14.268C44.492 14.508 44.36 14.764 44.184 15.036C44.016 15.3 43.788 15.556 43.5 15.804C43.212 16.044 42.852 16.24 42.42 16.392C41.988 16.544 41.472 16.62 40.872 16.62ZM49.4078 16.62C48.8558 16.62 48.3838 16.552 47.9918 16.416C47.5998 16.28 47.2718 16.104 47.0078 15.888C46.7518 15.672 46.5478 15.444 46.3958 15.204C46.2438 14.956 46.1278 14.724 46.0478 14.508C45.9758 14.292 45.9278 14.116 45.9038 13.98C45.8798 13.844 45.8678 13.776 45.8678 13.776H47.5238C47.5238 13.776 47.5318 13.824 47.5478 13.92C47.5718 14.016 47.6198 14.14 47.6918 14.292C47.7638 14.436 47.8678 14.58 48.0038 14.724C48.1478 14.868 48.3358 14.992 48.5678 15.096C48.8078 15.192 49.1038 15.24 49.4558 15.24C49.9998 15.24 50.4118 15.12 50.6918 14.88C50.9798 14.632 51.1238 14.328 51.1238 13.968C51.1238 13.664 51.0158 13.424 50.7998 13.248C50.5838 13.064 50.2638 12.928 49.8398 12.84L48.6638 12.588C48.2078 12.492 47.7798 12.348 47.3798 12.156C46.9878 11.964 46.6718 11.704 46.4318 11.376C46.1918 11.048 46.0718 10.628 46.0718 10.116C46.0718 9.58 46.2038 9.116 46.4678 8.724C46.7398 8.332 47.1118 8.032 47.5838 7.824C48.0558 7.608 48.6078 7.5 49.2398 7.5C49.8398 7.5 50.3358 7.588 50.7278 7.764C51.1198 7.94 51.4318 8.156 51.6638 8.412C51.9038 8.668 52.0798 8.924 52.1918 9.18C52.3038 9.436 52.3758 9.652 52.4078 9.828C52.4478 10.004 52.4678 10.092 52.4678 10.092H50.8718C50.8718 10.092 50.8558 10.032 50.8238 9.912C50.7918 9.784 50.7198 9.64 50.6078 9.48C50.4958 9.32 50.3278 9.18 50.1038 9.06C49.8798 8.932 49.5798 8.868 49.2038 8.868C48.6678 8.868 48.2758 8.988 48.0278 9.228C47.7878 9.468 47.6678 9.728 47.6678 10.008C47.6678 10.296 47.7798 10.52 48.0038 10.68C48.2278 10.84 48.5278 10.964 48.9038 11.052L50.1638 11.316C50.6358 11.42 51.0678 11.576 51.4598 11.784C51.8518 11.992 52.1638 12.268 52.3958 12.612C52.6278 12.948 52.7438 13.368 52.7438 13.872C52.7438 14.384 52.6158 14.848 52.3598 15.264C52.1038 15.68 51.7278 16.012 51.2318 16.26C50.7358 16.5 50.1278 16.62 49.4078 16.62ZM57.3766 16.62C56.8246 16.62 56.3526 16.552 55.9606 16.416C55.5686 16.28 55.2406 16.104 54.9766 15.888C54.7206 15.672 54.5166 15.444 54.3646 15.204C54.2126 14.956 54.0966 14.724 54.0166 14.508C53.9446 14.292 53.8966 14.116 53.8726 13.98C53.8486 13.844 53.8366 13.776 53.8366 13.776H55.4926C55.4926 13.776 55.5006 13.824 55.5166 13.92C55.5406 14.016 55.5886 14.14 55.6606 14.292C55.7326 14.436 55.8366 14.58 55.9726 14.724C56.1166 14.868 56.3046 14.992 56.5366 15.096C56.7766 15.192 57.0726 15.24 57.4246 15.24C57.9686 15.24 58.3806 15.12 58.6606 14.88C58.9486 14.632 59.0926 14.328 59.0926 13.968C59.0926 13.664 58.9846 13.424 58.7686 13.248C58.5526 13.064 58.2326 12.928 57.8086 12.84L56.6326 12.588C56.1766 12.492 55.7486 12.348 55.3486 12.156C54.9566 11.964 54.6406 11.704 54.4006 11.376C54.1606 11.048 54.0406 10.628 54.0406 10.116C54.0406 9.58 54.1726 9.116 54.4366 8.724C54.7086 8.332 55.0806 8.032 55.5526 7.824C56.0246 7.608 56.5766 7.5 57.2086 7.5C57.8086 7.5 58.3046 7.588 58.6966 7.764C59.0886 7.94 59.4006 8.156 59.6326 8.412C59.8726 8.668 60.0486 8.924 60.1606 9.18C60.2726 9.436 60.3446 9.652 60.3766 9.828C60.4166 10.004 60.4366 10.092 60.4366 10.092H58.8406C58.8406 10.092 58.8246 10.032 58.7926 9.912C58.7606 9.784 58.6886 9.64 58.5766 9.48C58.4646 9.32 58.2966 9.18 58.0726 9.06C57.8486 8.932 57.5486 8.868 57.1726 8.868C56.6366 8.868 56.2446 8.988 55.9966 9.228C55.7566 9.468 55.6366 9.728 55.6366 10.008C55.6366 10.296 55.7486 10.52 55.9726 10.68C56.1966 10.84 56.4966 10.964 56.8726 11.052L58.1326 11.316C58.6046 11.42 59.0366 11.576 59.4286 11.784C59.8206 11.992 60.1326 12.268 60.3646 12.612C60.5966 12.948 60.7126 13.368 60.7126 13.872C60.7126 14.384 60.5846 14.848 60.3286 15.264C60.0726 15.68 59.6966 16.012 59.2006 16.26C58.7046 16.5 58.0966 16.62 57.3766 16.62Z" fill="#EBE3D5"/>
</svg>
