<svg width="20" height="21" viewBox="0 0 20 21" fill="none" xmlns="http://www.w3.org/2000/svg">
<g clip-path="url(#clip0_102_78)">
<path fill-rule="evenodd" clip-rule="evenodd" d="M10 0.599976C15.523 0.599976 20 5.18991 20 10.8529C20 15.3819 17.138 19.2239 13.167 20.5809C12.66 20.6819 12.48 20.3617 12.48 20.0887C12.48 19.7507 12.492 18.6468 12.492 17.2748C12.492 16.3188 12.172 15.6948 11.813 15.3768C14.04 15.1228 16.38 14.2557 16.38 10.3177C16.38 9.19775 15.992 8.2838 15.35 7.5658C15.454 7.3068 15.797 6.26393 15.252 4.85193C15.252 4.85193 14.414 4.5772 12.505 5.9032C11.706 5.6762 10.85 5.56198 10 5.55798C9.15 5.56198 8.295 5.6762 7.497 5.9032C5.586 4.5772 4.746 4.85193 4.746 4.85193C4.203 6.26393 4.546 7.3068 4.649 7.5658C4.01 8.2838 3.619 9.19775 3.619 10.3177C3.619 14.2457 5.954 15.1261 8.175 15.3851C7.889 15.6411 7.63 16.0927 7.54 16.7557C6.97 17.0177 5.522 17.4712 4.63 15.9042C4.63 15.9042 4.101 14.919 3.097 14.847C3.097 14.847 2.122 14.8341 3.029 15.4701C3.029 15.4701 3.684 15.7851 4.139 16.9701C4.139 16.9701 4.726 18.8001 7.508 18.1801C7.513 19.0371 7.522 19.8447 7.522 20.0887C7.522 20.3597 7.338 20.6769 6.839 20.5819C2.865 19.2269 0 15.3829 0 10.8529C0 5.18991 4.478 0.599976 10 0.599976Z" fill="#ffffff"/>
</g>
<defs>
<clipPath id="clip0_102_78">
<rect width="20" height="20" fill="white" transform="translate(0 0.599976)"/>
</clipPath>
</defs>
</svg>
