<svg width="81" height="24" viewBox="0 0 81 24" fill="none" xmlns="http://www.w3.org/2000/svg">
<rect width="81" height="24" fill="#181C14"/>
<path d="M12.951 17.6005L11.8275 5H24.1725L23.0475 17.5985L17.9925 19L12.951 17.6005Z" fill="#E44F26"/>
<path d="M18 17.929L22.085 16.7965L23.046 6.03052H18V17.929Z" fill="#F1662A"/>
<path d="M18 10.7034H15.955L15.814 9.12094H18V7.57544H17.9945H14.125L14.162 7.99044L14.5415 12.2489H18V10.7034Z" fill="#EBEBEB"/>
<path d="M18 14.717L17.993 14.719L16.272 14.2545L16.162 13.022H15.3255H14.6105L14.827 15.448L17.993 16.327L18 16.325V14.717Z" fill="#EBEBEB"/>
<path d="M17.9945 10.7035V12.249H19.8975L19.7185 14.2535L17.9945 14.7185V16.3265L21.163 15.448L21.186 15.187L21.549 11.1185L21.587 10.7035H21.1705H17.9945Z" fill="white"/>
<path d="M17.9945 7.57544V8.53544V9.11744V9.12094H21.7225H21.7275L21.7585 8.77394L21.829 7.99044L21.866 7.57544H17.9945Z" fill="white"/>
<path d="M36.864 16.5V7.62H38.496V11.268H42.204V7.62H43.836V16.5H42.204V12.684H38.496V16.5H36.864ZM47.9233 16.5V9.036H45.1873V7.62H52.2913V9.036H49.5553V16.5H47.9233ZM53.6453 16.5V7.62H55.8173L58.0373 12.432L60.3053 7.62H62.4413V16.5H60.8333V10.08L58.7933 14.352H57.2813L55.2533 10.056V16.5H53.6453ZM64.1687 16.5V7.62H65.8007V15.084H70.2167V16.5H64.1687Z" fill="#EBE3D5"/>
</svg>
