<svg width="91" height="24" viewBox="0 0 91 24" fill="none" xmlns="http://www.w3.org/2000/svg">
<rect width="91" height="24" fill="#181C14"/>
<g clip-path="url(#clip0_64_80)">
<path fill-rule="evenodd" clip-rule="evenodd" d="M25.991 7.6197C25.997 7.64107 26 7.66293 26 7.68479V11.1191C26 11.1633 25.988 11.2067 25.9651 11.2449C25.9423 11.2831 25.9095 11.3148 25.87 11.3367L22.903 12.9963V16.2854C22.903 16.3294 22.891 16.3726 22.8684 16.4107C22.8457 16.4488 22.8132 16.4805 22.774 16.5025L16.58 19.9665C16.5655 19.9742 16.55 19.9791 16.535 19.9844C16.529 19.9864 16.5235 19.9898 16.5175 19.9917C16.4742 20.0028 16.4288 20.0028 16.3855 19.9917C16.378 19.9898 16.372 19.9859 16.365 19.9835C16.351 19.9786 16.336 19.9737 16.3225 19.9665L10.1295 16.5025C10.0902 16.4805 10.0576 16.4489 10.0348 16.4108C10.0121 16.3727 10.0001 16.3294 10 16.2854V5.98244C10 5.9601 10.003 5.93824 10.009 5.91687C10.011 5.90959 10.0155 5.90327 10.018 5.89599C10.023 5.88287 10.0275 5.86927 10.0345 5.85713C10.0395 5.84887 10.0465 5.84256 10.052 5.83479C10.0595 5.82508 10.0665 5.81439 10.075 5.80565C10.0825 5.79836 10.092 5.79302 10.1005 5.78671C10.11 5.77942 10.118 5.77116 10.129 5.76534L13.226 4.03336C13.2652 4.0115 13.3096 4 13.3547 4C13.3999 4 13.4443 4.0115 13.4835 4.03336L16.5805 5.76534C16.591 5.77165 16.6 5.77942 16.609 5.78671C16.6175 5.79302 16.627 5.79836 16.634 5.80516C16.6435 5.81488 16.65 5.82459 16.6575 5.83479C16.663 5.84256 16.6705 5.84887 16.675 5.85713C16.6825 5.86927 16.6865 5.88287 16.692 5.89599C16.6945 5.90327 16.699 5.90959 16.7005 5.91736C16.7066 5.93856 16.7098 5.96044 16.71 5.98244V12.4178L19.29 10.9744V7.68479C19.2902 7.66278 19.2934 7.6409 19.2995 7.6197C19.3015 7.61193 19.3055 7.60513 19.3085 7.59833C19.3135 7.58522 19.318 7.57162 19.325 7.55948C19.33 7.55122 19.337 7.54491 19.3425 7.53714C19.35 7.52742 19.3565 7.51674 19.3655 7.508C19.373 7.50071 19.3825 7.49585 19.3905 7.48954C19.4005 7.48177 19.409 7.47351 19.419 7.46768L22.5165 5.73571C22.5557 5.7138 22.6001 5.70227 22.6453 5.70227C22.6904 5.70227 22.7348 5.7138 22.774 5.73571L25.871 7.46768C25.882 7.474 25.89 7.48225 25.9 7.48905C25.908 7.49537 25.917 7.50071 25.925 7.508C25.9335 7.51674 25.94 7.52742 25.948 7.53714C25.9535 7.54491 25.9605 7.55171 25.965 7.55948C25.9725 7.57162 25.977 7.58522 25.982 7.59833C25.985 7.60562 25.989 7.61193 25.991 7.6197ZM25.484 10.9744V8.11851L24.4 8.72465L22.903 9.56198V12.4178L25.484 10.9744ZM22.387 16.1407V13.2829L20.9145 14.0998L16.7095 16.4311V19.3161L22.387 16.1407ZM10.516 6.41616V16.1407L16.1935 19.3156V16.4316L13.2275 14.8011L13.2265 14.8002L13.225 14.7997C13.215 14.7938 13.207 14.7861 13.1975 14.7788C13.1895 14.773 13.18 14.7676 13.173 14.7608L13.1725 14.7598C13.164 14.7521 13.158 14.7424 13.151 14.7336C13.1445 14.7254 13.137 14.7181 13.132 14.7093L13.1315 14.7084C13.1255 14.6987 13.122 14.6875 13.118 14.6768C13.1135 14.6676 13.108 14.6588 13.1055 14.6486C13.1025 14.6365 13.102 14.6243 13.1005 14.6117C13.099 14.602 13.0965 14.5933 13.0965 14.5835V7.85915L11.6 7.02182L10.516 6.41616ZM13.355 4.53994L10.775 5.98244L13.3545 7.42494L15.9345 5.98244L13.355 4.53994ZM14.697 13.5432L16.1935 12.7063V6.41616L15.11 7.02182L13.613 7.85915V14.1493L14.697 13.5432ZM22.645 6.24228L20.065 7.68479L22.645 9.12729L25.224 7.68479L22.645 6.24228ZM22.3865 9.56198L20.8895 8.72465L19.806 8.11851V10.9744L21.3025 11.8112L22.3865 12.4178V9.56198ZM16.4505 15.9974L20.2345 13.8992L22.126 12.8501L19.548 11.4086L16.58 13.0687L13.875 14.5816L16.4505 15.9974Z" fill="#FF2D20"/>
</g>
<path d="M36.864 16.5V7.62H38.496V15.084H42.912V16.5H36.864ZM46.7219 10.02C47.1299 10.02 47.4659 10.088 47.7299 10.224C47.9939 10.352 48.2019 10.496 48.3539 10.656C48.5059 10.808 48.6099 10.932 48.6659 11.028H48.7379V10.14H50.3339V16.5H48.7379V15.612H48.6659C48.6099 15.708 48.5059 15.836 48.3539 15.996C48.2019 16.156 47.9939 16.3 47.7299 16.428C47.4659 16.556 47.1299 16.62 46.7219 16.62C46.2499 16.62 45.8379 16.528 45.4859 16.344C45.1339 16.152 44.8379 15.9 44.5979 15.588C44.3659 15.268 44.1899 14.912 44.0699 14.52C43.9579 14.128 43.9019 13.728 43.9019 13.32C43.9019 12.912 43.9579 12.512 44.0699 12.12C44.1899 11.728 44.3659 11.376 44.5979 11.064C44.8379 10.744 45.1339 10.492 45.4859 10.308C45.8379 10.116 46.2499 10.02 46.7219 10.02ZM47.1419 11.328C46.7819 11.328 46.4779 11.428 46.2299 11.628C45.9899 11.82 45.8099 12.068 45.6899 12.372C45.5699 12.676 45.5099 12.992 45.5099 13.32C45.5099 13.648 45.5699 13.964 45.6899 14.268C45.8099 14.572 45.9899 14.824 46.2299 15.024C46.4779 15.216 46.7819 15.312 47.1419 15.312C47.5019 15.312 47.8019 15.216 48.0419 15.024C48.2819 14.824 48.4619 14.572 48.5819 14.268C48.7019 13.964 48.7619 13.648 48.7619 13.32C48.7619 12.992 48.7019 12.676 48.5819 12.372C48.4619 12.068 48.2819 11.82 48.0419 11.628C47.8019 11.428 47.5019 11.328 47.1419 11.328ZM51.826 16.5V10.14H53.41V11.016H53.47C53.582 10.768 53.766 10.54 54.022 10.332C54.278 10.124 54.662 10.02 55.174 10.02C55.334 10.02 55.466 10.032 55.57 10.056C55.674 10.072 55.726 10.08 55.726 10.08V11.628C55.726 11.628 55.666 11.62 55.546 11.604C55.434 11.588 55.294 11.58 55.126 11.58C54.566 11.58 54.142 11.736 53.854 12.048C53.566 12.36 53.422 12.864 53.422 13.56V16.5H51.826ZM59.2024 10.02C59.6104 10.02 59.9464 10.088 60.2104 10.224C60.4744 10.352 60.6824 10.496 60.8344 10.656C60.9864 10.808 61.0904 10.932 61.1464 11.028H61.2184V10.14H62.8144V16.5H61.2184V15.612H61.1464C61.0904 15.708 60.9864 15.836 60.8344 15.996C60.6824 16.156 60.4744 16.3 60.2104 16.428C59.9464 16.556 59.6104 16.62 59.2024 16.62C58.7304 16.62 58.3184 16.528 57.9664 16.344C57.6144 16.152 57.3184 15.9 57.0784 15.588C56.8464 15.268 56.6704 14.912 56.5504 14.52C56.4384 14.128 56.3824 13.728 56.3824 13.32C56.3824 12.912 56.4384 12.512 56.5504 12.12C56.6704 11.728 56.8464 11.376 57.0784 11.064C57.3184 10.744 57.6144 10.492 57.9664 10.308C58.3184 10.116 58.7304 10.02 59.2024 10.02ZM59.6224 11.328C59.2624 11.328 58.9584 11.428 58.7104 11.628C58.4704 11.82 58.2904 12.068 58.1704 12.372C58.0504 12.676 57.9904 12.992 57.9904 13.32C57.9904 13.648 58.0504 13.964 58.1704 14.268C58.2904 14.572 58.4704 14.824 58.7104 15.024C58.9584 15.216 59.2624 15.312 59.6224 15.312C59.9824 15.312 60.2824 15.216 60.5224 15.024C60.7624 14.824 60.9424 14.572 61.0624 14.268C61.1824 13.964 61.2424 13.648 61.2424 13.32C61.2424 12.992 61.1824 12.676 61.0624 12.372C60.9424 12.068 60.7624 11.82 60.5224 11.628C60.2824 11.428 59.9824 11.328 59.6224 11.328ZM66.0161 16.5L63.6521 10.14H65.2721L66.8681 14.676L68.4401 10.14H70.0601L67.6841 16.5H66.0161ZM73.9058 16.62C73.3618 16.62 72.8898 16.528 72.4898 16.344C72.0978 16.152 71.7698 15.9 71.5058 15.588C71.2498 15.268 71.0578 14.912 70.9298 14.52C70.8018 14.128 70.7378 13.728 70.7378 13.32C70.7378 12.912 70.7978 12.516 70.9178 12.132C71.0458 11.74 71.2338 11.384 71.4818 11.064C71.7378 10.744 72.0618 10.492 72.4538 10.308C72.8458 10.116 73.3098 10.02 73.8458 10.02C74.4218 10.02 74.9298 10.148 75.3698 10.404C75.8098 10.66 76.1538 11.036 76.4018 11.532C76.6498 12.02 76.7738 12.628 76.7738 13.356V13.764H72.3458C72.3698 14.196 72.5178 14.572 72.7898 14.892C73.0618 15.204 73.4338 15.36 73.9058 15.36C74.1778 15.36 74.4018 15.316 74.5778 15.228C74.7538 15.14 74.8898 15.04 74.9858 14.928C75.0818 14.808 75.1498 14.708 75.1898 14.628C75.2298 14.54 75.2498 14.496 75.2498 14.496H76.7258C76.7258 14.496 76.7058 14.568 76.6658 14.712C76.6258 14.848 76.5498 15.024 76.4378 15.24C76.3338 15.448 76.1778 15.66 75.9698 15.876C75.7618 16.084 75.4898 16.26 75.1538 16.404C74.8178 16.548 74.4018 16.62 73.9058 16.62ZM72.3458 12.72H75.2378C75.2138 12.224 75.0658 11.856 74.7938 11.616C74.5218 11.376 74.2018 11.256 73.8338 11.256C73.4258 11.256 73.0858 11.388 72.8138 11.652C72.5418 11.908 72.3858 12.264 72.3458 12.72ZM78.2429 16.5L78.2549 7.38H79.8389V16.5H78.2429Z" fill="#EBE3D5"/>
<defs>
<clipPath id="clip0_64_80">
<rect width="16" height="16" fill="white" transform="translate(10 4)"/>
</clipPath>
</defs>
</svg>
