<svg width="104" height="24" viewBox="0 0 104 24" fill="none" xmlns="http://www.w3.org/2000/svg">
<rect width="104" height="24" fill="#181C14"/>
<g clip-path="url(#clip0_64_56)">
<path d="M18.0001 4.00269L25.0621 7.99742V15.9895L18.0001 19.9843L10.938 15.9895V7.99742L18.0001 4.00269Z" fill="white"/>
<path d="M23.8017 15.7124L18.2346 18.865V16.4133L21.7044 14.5025L23.8017 15.7124ZM24.1827 15.3686V8.78092L22.1467 9.95615V14.1934L24.1827 15.3686ZM12.1772 15.7124L17.7443 18.8624V16.4106L14.2745 14.5025L12.1772 15.7124ZM11.7961 15.3686V8.78092L13.8322 9.95615V14.1934L11.7961 15.3686ZM12.0333 8.35453L17.7443 5.12463V7.49642L14.0853 9.50845L14.056 9.52444L12.0333 8.35453ZM23.9429 8.35453L18.2346 5.12463V7.49642L21.8909 9.51111L21.9202 9.5271L23.9429 8.35453Z" fill="#8ED6FB"/>
<path d="M17.7443 15.8537L14.3225 13.9696V10.2413L17.7443 12.216V15.8537ZM18.2346 15.8537L21.6564 13.9722V10.2413L18.2346 12.216V15.8537ZM14.5517 9.8096L17.9895 7.92017L21.4246 9.8096L17.9895 11.7923L14.5517 9.8096Z" fill="#1C78C0"/>
</g>
<path d="M38.652 16.5L36.384 7.62H38.028L39.672 14.304L41.412 7.62H43.068L44.796 14.28L46.452 7.62H48.084L45.828 16.5H43.8L42.24 10.452L40.668 16.5H38.652ZM51.6285 16.62C51.0845 16.62 50.6125 16.528 50.2125 16.344C49.8205 16.152 49.4925 15.9 49.2285 15.588C48.9725 15.268 48.7805 14.912 48.6525 14.52C48.5245 14.128 48.4605 13.728 48.4605 13.32C48.4605 12.912 48.5205 12.516 48.6405 12.132C48.7685 11.74 48.9565 11.384 49.2045 11.064C49.4605 10.744 49.7845 10.492 50.1765 10.308C50.5685 10.116 51.0325 10.02 51.5685 10.02C52.1445 10.02 52.6525 10.148 53.0925 10.404C53.5325 10.66 53.8765 11.036 54.1245 11.532C54.3725 12.02 54.4965 12.628 54.4965 13.356V13.764H50.0685C50.0925 14.196 50.2405 14.572 50.5125 14.892C50.7845 15.204 51.1565 15.36 51.6285 15.36C51.9005 15.36 52.1245 15.316 52.3005 15.228C52.4765 15.14 52.6125 15.04 52.7085 14.928C52.8045 14.808 52.8725 14.708 52.9125 14.628C52.9525 14.54 52.9725 14.496 52.9725 14.496H54.4485C54.4485 14.496 54.4285 14.568 54.3885 14.712C54.3485 14.848 54.2725 15.024 54.1605 15.24C54.0565 15.448 53.9005 15.66 53.6925 15.876C53.4845 16.084 53.2125 16.26 52.8765 16.404C52.5405 16.548 52.1245 16.62 51.6285 16.62ZM50.0685 12.72H52.9605C52.9365 12.224 52.7885 11.856 52.5165 11.616C52.2445 11.376 51.9245 11.256 51.5565 11.256C51.1485 11.256 50.8085 11.388 50.5365 11.652C50.2645 11.908 50.1085 12.264 50.0685 12.72ZM59.5776 16.62C59.1696 16.62 58.8336 16.556 58.5696 16.428C58.3056 16.292 58.0976 16.144 57.9456 15.984C57.8016 15.824 57.7016 15.7 57.6456 15.612H57.5616V16.5H55.9656V7.38H57.5616V11.028H57.6456C57.7016 10.932 57.8016 10.804 57.9456 10.644C58.0976 10.484 58.3056 10.34 58.5696 10.212C58.8336 10.084 59.1696 10.02 59.5776 10.02C60.0576 10.02 60.4736 10.116 60.8256 10.308C61.1776 10.492 61.4696 10.744 61.7016 11.064C61.9336 11.376 62.1056 11.728 62.2176 12.12C62.3376 12.512 62.3976 12.912 62.3976 13.32C62.3976 13.728 62.3376 14.128 62.2176 14.52C62.1056 14.912 61.9336 15.268 61.7016 15.588C61.4696 15.9 61.1776 16.152 60.8256 16.344C60.4736 16.528 60.0576 16.62 59.5776 16.62ZM59.1576 15.312C59.5256 15.312 59.8296 15.216 60.0696 15.024C60.3096 14.824 60.4896 14.572 60.6096 14.268C60.7296 13.964 60.7896 13.648 60.7896 13.32C60.7896 12.992 60.7296 12.676 60.6096 12.372C60.4896 12.068 60.3096 11.82 60.0696 11.628C59.8296 11.428 59.5256 11.328 59.1576 11.328C58.7976 11.328 58.4976 11.428 58.2576 11.628C58.0176 11.82 57.8376 12.068 57.7176 12.372C57.5976 12.676 57.5376 12.992 57.5376 13.32C57.5376 13.648 57.5976 13.964 57.7176 14.268C57.8376 14.572 58.0176 14.824 58.2576 15.024C58.4976 15.216 58.7976 15.312 59.1576 15.312ZM63.864 18.852V10.14H65.46V11.028H65.544C65.6 10.932 65.7 10.804 65.844 10.644C65.996 10.484 66.204 10.34 66.468 10.212C66.732 10.084 67.068 10.02 67.476 10.02C67.956 10.02 68.372 10.116 68.724 10.308C69.076 10.492 69.368 10.744 69.6 11.064C69.832 11.376 70.004 11.728 70.116 12.12C70.236 12.512 70.296 12.912 70.296 13.32C70.296 13.728 70.236 14.128 70.116 14.52C70.004 14.912 69.832 15.268 69.6 15.588C69.368 15.9 69.076 16.152 68.724 16.344C68.372 16.528 67.956 16.62 67.476 16.62C67.068 16.62 66.732 16.556 66.468 16.428C66.204 16.292 65.996 16.144 65.844 15.984C65.7 15.824 65.6 15.7 65.544 15.612H65.46V18.852H63.864ZM65.436 13.32C65.436 13.648 65.496 13.964 65.616 14.268C65.736 14.572 65.916 14.824 66.156 15.024C66.396 15.216 66.696 15.312 67.056 15.312C67.424 15.312 67.728 15.216 67.968 15.024C68.208 14.824 68.388 14.572 68.508 14.268C68.628 13.964 68.688 13.648 68.688 13.32C68.688 12.992 68.628 12.676 68.508 12.372C68.388 12.068 68.208 11.82 67.968 11.628C67.728 11.428 67.424 11.328 67.056 11.328C66.696 11.328 66.396 11.428 66.156 11.628C65.916 11.82 65.736 12.068 65.616 12.372C65.496 12.676 65.436 12.992 65.436 13.32ZM74.3547 10.02C74.7627 10.02 75.0987 10.088 75.3627 10.224C75.6267 10.352 75.8347 10.496 75.9867 10.656C76.1387 10.808 76.2427 10.932 76.2987 11.028H76.3707V10.14H77.9667V16.5H76.3707V15.612H76.2987C76.2427 15.708 76.1387 15.836 75.9867 15.996C75.8347 16.156 75.6267 16.3 75.3627 16.428C75.0987 16.556 74.7627 16.62 74.3547 16.62C73.8827 16.62 73.4707 16.528 73.1187 16.344C72.7667 16.152 72.4707 15.9 72.2307 15.588C71.9987 15.268 71.8227 14.912 71.7027 14.52C71.5907 14.128 71.5347 13.728 71.5347 13.32C71.5347 12.912 71.5907 12.512 71.7027 12.12C71.8227 11.728 71.9987 11.376 72.2307 11.064C72.4707 10.744 72.7667 10.492 73.1187 10.308C73.4707 10.116 73.8827 10.02 74.3547 10.02ZM74.7747 11.328C74.4147 11.328 74.1107 11.428 73.8627 11.628C73.6227 11.82 73.4427 12.068 73.3227 12.372C73.2027 12.676 73.1427 12.992 73.1427 13.32C73.1427 13.648 73.2027 13.964 73.3227 14.268C73.4427 14.572 73.6227 14.824 73.8627 15.024C74.1107 15.216 74.4147 15.312 74.7747 15.312C75.1347 15.312 75.4347 15.216 75.6747 15.024C75.9147 14.824 76.0947 14.572 76.2147 14.268C76.3347 13.964 76.3947 13.648 76.3947 13.32C76.3947 12.992 76.3347 12.676 76.2147 12.372C76.0947 12.068 75.9147 11.82 75.6747 11.628C75.4347 11.428 75.1347 11.328 74.7747 11.328ZM82.6617 16.62C82.1177 16.62 81.6417 16.528 81.2337 16.344C80.8257 16.152 80.4857 15.9 80.2137 15.588C79.9417 15.268 79.7377 14.912 79.6017 14.52C79.4737 14.128 79.4097 13.728 79.4097 13.32C79.4097 12.912 79.4737 12.512 79.6017 12.12C79.7377 11.728 79.9377 11.376 80.2017 11.064C80.4737 10.744 80.8137 10.492 81.2217 10.308C81.6297 10.116 82.1097 10.02 82.6617 10.02C83.2057 10.02 83.6577 10.1 84.0177 10.26C84.3777 10.42 84.6617 10.62 84.8697 10.86C85.0857 11.1 85.2457 11.34 85.3497 11.58C85.4537 11.812 85.5217 12.008 85.5537 12.168C85.5857 12.328 85.6017 12.408 85.6017 12.408H84.1017C84.1017 12.408 84.0857 12.356 84.0537 12.252C84.0217 12.14 83.9577 12.012 83.8617 11.868C83.7657 11.724 83.6217 11.596 83.4297 11.484C83.2457 11.372 82.9977 11.316 82.6857 11.316C82.3177 11.316 82.0057 11.412 81.7497 11.604C81.5017 11.788 81.3137 12.032 81.1857 12.336C81.0577 12.64 80.9937 12.968 80.9937 13.32C80.9937 13.672 81.0577 14 81.1857 14.304C81.3137 14.608 81.5017 14.856 81.7497 15.048C82.0057 15.232 82.3177 15.324 82.6857 15.324C82.9977 15.324 83.2457 15.268 83.4297 15.156C83.6217 15.044 83.7657 14.916 83.8617 14.772C83.9577 14.628 84.0217 14.504 84.0537 14.4C84.0857 14.288 84.1017 14.232 84.1017 14.232H85.6017C85.6017 14.232 85.5857 14.312 85.5537 14.472C85.5217 14.632 85.4537 14.832 85.3497 15.072C85.2457 15.304 85.0857 15.54 84.8697 15.78C84.6617 16.02 84.3777 16.22 84.0177 16.38C83.6577 16.54 83.2057 16.62 82.6617 16.62ZM87.114 16.5V7.38H88.71V12.66L90.954 10.14H92.838L90.198 13.044L92.922 16.5H91.014L88.71 13.572V16.5H87.114Z" fill="#EBE3D5"/>
<defs>
<clipPath id="clip0_64_56">
<rect width="16" height="16" fill="white" transform="translate(10 4)"/>
</clipPath>
</defs>
</svg>
