<svg width="79" height="24" viewBox="0 0 79 24" fill="none" xmlns="http://www.w3.org/2000/svg">
<rect width="79" height="24" fill="#181C14"/>
<path d="M23.7675 12.907C23.2109 12.91 22.7271 13.044 22.322 13.2422C22.1733 12.9479 22.0247 12.6856 21.9985 12.4932C21.9693 12.2688 21.9344 12.1318 21.9693 11.8637C22.0043 11.5956 22.1617 11.2138 22.1588 11.1846C22.1559 11.1555 22.1238 11.0185 21.8032 11.0156C21.4826 11.0127 21.2058 11.0768 21.1737 11.1613C21.1417 11.2458 21.0805 11.4382 21.0396 11.6364C20.9843 11.9278 20.3985 12.9683 20.0633 13.5132C19.9555 13.3005 19.8622 13.114 19.8418 12.9653C19.8127 12.7409 19.7777 12.604 19.8127 12.3358C19.8477 12.0677 20.005 11.6859 20.0021 11.6568C19.9992 11.6276 19.9672 11.4907 19.6466 11.4877C19.326 11.4848 19.0491 11.5489 19.0171 11.6335C18.985 11.718 18.95 11.9162 18.883 12.1085C18.816 12.3009 18.0378 14.0378 17.8338 14.4866C17.7289 14.7169 17.6386 14.9005 17.5744 15.0258C17.5744 15.0258 17.5715 15.0346 17.5628 15.0491C17.5074 15.157 17.4754 15.2152 17.4754 15.2152C17.4754 15.2152 17.4754 15.2152 17.4754 15.2182C17.4316 15.2968 17.385 15.3697 17.3617 15.3697C17.3442 15.3697 17.3121 15.1599 17.3675 14.8743C17.4841 14.271 17.761 13.3326 17.758 13.3005C17.758 13.283 17.8105 13.1198 17.5774 13.0353C17.35 12.9508 17.2684 13.0907 17.248 13.0907C17.2276 13.0907 17.2131 13.1402 17.2131 13.1402C17.2131 13.1402 17.4666 12.0852 16.7293 12.0852C16.2688 12.0852 15.6335 12.5894 15.3187 13.044C15.1205 13.1519 14.6979 13.3821 14.2462 13.6298C14.0743 13.726 13.8965 13.8222 13.7304 13.9125C13.7187 13.9009 13.707 13.8863 13.6954 13.8746C12.8036 12.9216 11.154 12.2484 11.224 10.969C11.2502 10.5027 11.4105 9.27863 14.3919 7.79229C16.8458 6.58282 18.7985 6.91798 19.1366 7.66115C19.6203 8.72199 18.0903 10.6921 15.5548 10.9777C14.5872 11.0856 14.0801 10.7125 13.9519 10.5726C13.8178 10.4269 13.7974 10.4182 13.7478 10.4473C13.6662 10.491 13.7187 10.6222 13.7478 10.6979C13.8236 10.8961 14.1355 11.2458 14.663 11.4178C15.1293 11.5693 16.263 11.6539 17.6356 11.1234C19.1715 10.5289 20.3723 8.87645 20.0196 7.49211C19.667 6.08738 17.3355 5.62399 15.1293 6.40796C13.8178 6.87426 12.3956 7.60869 11.3726 8.56461C10.1573 9.70122 9.96497 10.6892 10.0437 11.103C10.3264 12.5719 12.3519 13.5278 13.1621 14.236C13.1213 14.2593 13.0834 14.2797 13.0513 14.2972C12.6462 14.4983 11.1016 15.3056 10.7169 16.1595C10.2797 17.1271 10.7868 17.8207 11.122 17.914C12.1624 18.2025 13.232 17.6837 13.8061 16.8269C14.3803 15.9701 14.3103 14.8568 14.0451 14.3468C14.0422 14.3409 14.0393 14.3351 14.0335 14.3293C14.1384 14.2681 14.2462 14.204 14.3511 14.1427C14.558 14.0203 14.7621 13.9067 14.9369 13.8134C14.8378 14.0845 14.765 14.408 14.73 14.8743C14.6863 15.4222 14.9107 16.1333 15.205 16.4131C15.3362 16.5355 15.4907 16.5384 15.5897 16.5384C15.9336 16.5384 16.0881 16.2528 16.26 15.9147C16.4699 15.5009 16.6593 15.02 16.6593 15.02C16.6593 15.02 16.4233 16.3198 17.0644 16.3198C17.2976 16.3198 17.5336 16.0167 17.6386 15.8622V15.8652C17.6386 15.8652 17.6444 15.8564 17.656 15.836C17.6794 15.7981 17.6939 15.7748 17.6939 15.7748V15.769C17.7872 15.6058 17.997 15.2356 18.3089 14.6207C18.7111 13.828 19.0987 12.8371 19.0987 12.8371C19.0987 12.8371 19.1336 13.079 19.2531 13.4812C19.3231 13.7172 19.4688 13.9766 19.5854 14.2273C19.4921 14.3584 19.4338 14.4313 19.4338 14.4313C19.4338 14.4313 19.4338 14.4313 19.4367 14.4342C19.361 14.5333 19.2794 14.6411 19.189 14.746C18.8713 15.1249 18.4925 15.5591 18.44 15.6845C18.3788 15.8331 18.3934 15.9409 18.51 16.0284C18.5945 16.0925 18.746 16.1012 18.9005 16.0925C19.1861 16.0721 19.3872 16.0021 19.4863 15.9584C19.6407 15.903 19.8214 15.8185 19.9905 15.6932C20.3023 15.463 20.4917 15.1336 20.4743 14.6994C20.4655 14.4604 20.3868 14.2214 20.2907 13.997C20.3198 13.9562 20.346 13.9154 20.3752 13.8746C20.8677 13.1548 21.2495 12.365 21.2495 12.365C21.2495 12.365 21.2845 12.6069 21.4039 13.0091C21.4622 13.2131 21.5817 13.4346 21.6866 13.6502C21.2233 14.0262 20.9376 14.4633 20.8356 14.7489C20.652 15.2794 20.7948 15.5183 21.0659 15.5737C21.1883 15.5999 21.3631 15.5417 21.4914 15.4863C21.6546 15.4338 21.8469 15.3435 22.0305 15.2094C22.3424 14.9792 22.6426 14.6586 22.6251 14.2244C22.6163 14.0262 22.5639 13.8309 22.491 13.6415C22.8845 13.4783 23.3916 13.3879 24.0386 13.4637C25.4258 13.6269 25.6998 14.4925 25.6473 14.8568C25.5948 15.2211 25.3034 15.4193 25.2072 15.4805C25.1111 15.5417 25.079 15.5621 25.0877 15.6058C25.0994 15.6699 25.146 15.667 25.2276 15.6553C25.3413 15.6349 25.9562 15.361 25.9825 14.6907C26.0262 13.8338 25.2101 12.8983 23.7675 12.907ZM13.0659 16.5151C12.6054 17.0163 11.9642 17.2058 11.6874 17.0455C11.3901 16.8735 11.5067 16.1333 12.0721 15.6029C12.416 15.2794 12.859 14.9792 13.1533 14.7956C13.2203 14.7548 13.3194 14.6965 13.4389 14.6236C13.4593 14.612 13.471 14.6061 13.471 14.6061C13.4943 14.5916 13.5176 14.577 13.5409 14.5624C13.7478 15.3202 13.5497 15.9876 13.0659 16.5151ZM16.4174 14.236C16.2571 14.6265 15.922 15.6262 15.718 15.5708C15.5431 15.5242 15.4353 14.7664 15.683 14.0174C15.8083 13.6415 16.0735 13.1927 16.228 13.0178C16.4786 12.738 16.7555 12.6448 16.8225 12.7584C16.907 12.907 16.5165 13.9912 16.4174 14.236ZM19.1832 15.5591C19.1162 15.5941 19.052 15.6174 19.0229 15.5999C19.0025 15.5883 19.052 15.5417 19.052 15.5417C19.052 15.5417 19.3988 15.1686 19.5358 14.9996C19.6145 14.9005 19.7078 14.7839 19.8069 14.6528V14.6907C19.8069 15.1366 19.3755 15.4367 19.1832 15.5591ZM21.3165 15.0724C21.267 15.0375 21.2757 14.9209 21.4418 14.5566C21.506 14.4138 21.6575 14.1748 21.9169 13.9446C21.946 14.0378 21.9664 14.1282 21.9635 14.2127C21.9606 14.7752 21.5584 14.985 21.3165 15.0724Z" fill="#CD6799"/>
<path d="M40.068 16.62C39.516 16.62 39.044 16.552 38.652 16.416C38.26 16.28 37.932 16.104 37.668 15.888C37.412 15.672 37.208 15.444 37.056 15.204C36.904 14.956 36.788 14.724 36.708 14.508C36.636 14.292 36.588 14.116 36.564 13.98C36.54 13.844 36.528 13.776 36.528 13.776H38.184C38.184 13.776 38.192 13.824 38.208 13.92C38.232 14.016 38.28 14.14 38.352 14.292C38.424 14.436 38.528 14.58 38.664 14.724C38.808 14.868 38.996 14.992 39.228 15.096C39.468 15.192 39.764 15.24 40.116 15.24C40.66 15.24 41.072 15.12 41.352 14.88C41.64 14.632 41.784 14.328 41.784 13.968C41.784 13.664 41.676 13.424 41.46 13.248C41.244 13.064 40.924 12.928 40.5 12.84L39.324 12.588C38.868 12.492 38.44 12.348 38.04 12.156C37.648 11.964 37.332 11.704 37.092 11.376C36.852 11.048 36.732 10.628 36.732 10.116C36.732 9.58 36.864 9.116 37.128 8.724C37.4 8.332 37.772 8.032 38.244 7.824C38.716 7.608 39.268 7.5 39.9 7.5C40.5 7.5 40.996 7.588 41.388 7.764C41.78 7.94 42.092 8.156 42.324 8.412C42.564 8.668 42.74 8.924 42.852 9.18C42.964 9.436 43.036 9.652 43.068 9.828C43.108 10.004 43.128 10.092 43.128 10.092H41.532C41.532 10.092 41.516 10.032 41.484 9.912C41.452 9.784 41.38 9.64 41.268 9.48C41.156 9.32 40.988 9.18 40.764 9.06C40.54 8.932 40.24 8.868 39.864 8.868C39.328 8.868 38.936 8.988 38.688 9.228C38.448 9.468 38.328 9.728 38.328 10.008C38.328 10.296 38.44 10.52 38.664 10.68C38.888 10.84 39.188 10.964 39.564 11.052L40.824 11.316C41.296 11.42 41.728 11.576 42.12 11.784C42.512 11.992 42.824 12.268 43.056 12.612C43.288 12.948 43.404 13.368 43.404 13.872C43.404 14.384 43.276 14.848 43.02 15.264C42.764 15.68 42.388 16.012 41.892 16.26C41.396 16.5 40.788 16.62 40.068 16.62ZM44.002 16.5L47.062 7.62H49.186L52.258 16.5H50.554L49.918 14.628H46.342L45.706 16.5H44.002ZM46.81 13.212H49.45L48.13 9.288L46.81 13.212ZM56.4743 16.62C55.9223 16.62 55.4503 16.552 55.0583 16.416C54.6663 16.28 54.3383 16.104 54.0743 15.888C53.8183 15.672 53.6143 15.444 53.4623 15.204C53.3103 14.956 53.1943 14.724 53.1143 14.508C53.0423 14.292 52.9943 14.116 52.9703 13.98C52.9463 13.844 52.9343 13.776 52.9343 13.776H54.5903C54.5903 13.776 54.5983 13.824 54.6143 13.92C54.6383 14.016 54.6863 14.14 54.7583 14.292C54.8303 14.436 54.9343 14.58 55.0703 14.724C55.2143 14.868 55.4023 14.992 55.6343 15.096C55.8743 15.192 56.1703 15.24 56.5223 15.24C57.0663 15.24 57.4783 15.12 57.7583 14.88C58.0463 14.632 58.1903 14.328 58.1903 13.968C58.1903 13.664 58.0823 13.424 57.8663 13.248C57.6503 13.064 57.3303 12.928 56.9063 12.84L55.7303 12.588C55.2743 12.492 54.8463 12.348 54.4463 12.156C54.0543 11.964 53.7383 11.704 53.4983 11.376C53.2583 11.048 53.1383 10.628 53.1383 10.116C53.1383 9.58 53.2703 9.116 53.5343 8.724C53.8063 8.332 54.1783 8.032 54.6503 7.824C55.1223 7.608 55.6743 7.5 56.3063 7.5C56.9063 7.5 57.4023 7.588 57.7943 7.764C58.1863 7.94 58.4983 8.156 58.7303 8.412C58.9703 8.668 59.1463 8.924 59.2583 9.18C59.3703 9.436 59.4423 9.652 59.4743 9.828C59.5143 10.004 59.5343 10.092 59.5343 10.092H57.9383C57.9383 10.092 57.9223 10.032 57.8903 9.912C57.8583 9.784 57.7863 9.64 57.6743 9.48C57.5623 9.32 57.3943 9.18 57.1703 9.06C56.9463 8.932 56.6463 8.868 56.2703 8.868C55.7343 8.868 55.3423 8.988 55.0943 9.228C54.8543 9.468 54.7343 9.728 54.7343 10.008C54.7343 10.296 54.8463 10.52 55.0703 10.68C55.2943 10.84 55.5943 10.964 55.9703 11.052L57.2303 11.316C57.7023 11.42 58.1343 11.576 58.5263 11.784C58.9183 11.992 59.2303 12.268 59.4622 12.612C59.6943 12.948 59.8103 13.368 59.8103 13.872C59.8103 14.384 59.6823 14.848 59.4263 15.264C59.1703 15.68 58.7943 16.012 58.2983 16.26C57.8023 16.5 57.1943 16.62 56.4743 16.62ZM64.443 16.62C63.891 16.62 63.419 16.552 63.027 16.416C62.635 16.28 62.307 16.104 62.043 15.888C61.787 15.672 61.583 15.444 61.431 15.204C61.279 14.956 61.163 14.724 61.083 14.508C61.011 14.292 60.963 14.116 60.939 13.98C60.915 13.844 60.903 13.776 60.903 13.776H62.559C62.559 13.776 62.567 13.824 62.583 13.92C62.607 14.016 62.655 14.14 62.727 14.292C62.799 14.436 62.903 14.58 63.039 14.724C63.183 14.868 63.371 14.992 63.603 15.096C63.843 15.192 64.139 15.24 64.491 15.24C65.035 15.24 65.447 15.12 65.727 14.88C66.015 14.632 66.159 14.328 66.159 13.968C66.159 13.664 66.051 13.424 65.835 13.248C65.619 13.064 65.299 12.928 64.875 12.84L63.699 12.588C63.243 12.492 62.815 12.348 62.415 12.156C62.023 11.964 61.707 11.704 61.467 11.376C61.227 11.048 61.107 10.628 61.107 10.116C61.107 9.58 61.239 9.116 61.503 8.724C61.775 8.332 62.147 8.032 62.619 7.824C63.091 7.608 63.643 7.5 64.275 7.5C64.875 7.5 65.371 7.588 65.763 7.764C66.155 7.94 66.467 8.156 66.699 8.412C66.939 8.668 67.115 8.924 67.227 9.18C67.339 9.436 67.411 9.652 67.443 9.828C67.483 10.004 67.503 10.092 67.503 10.092H65.907C65.907 10.092 65.891 10.032 65.859 9.912C65.827 9.784 65.755 9.64 65.643 9.48C65.531 9.32 65.363 9.18 65.139 9.06C64.915 8.932 64.615 8.868 64.239 8.868C63.703 8.868 63.311 8.988 63.063 9.228C62.823 9.468 62.703 9.728 62.703 10.008C62.703 10.296 62.815 10.52 63.039 10.68C63.263 10.84 63.563 10.964 63.939 11.052L65.199 11.316C65.671 11.42 66.103 11.576 66.495 11.784C66.887 11.992 67.199 12.268 67.431 12.612C67.663 12.948 67.779 13.368 67.779 13.872C67.779 14.384 67.651 14.848 67.395 15.264C67.139 15.68 66.763 16.012 66.267 16.26C65.771 16.5 65.163 16.62 64.443 16.62Z" fill="#EBE3D5"/>
</svg>
