<svg width="97" height="24" viewBox="0 0 97 24" fill="none" xmlns="http://www.w3.org/2000/svg">
<rect width="97" height="24" fill="#181C14"/>
<path d="M14.5 10.85C14.9667 8.98338 16.1333 8.05005 18 8.05005C20.8 8.05005 21.15 10.15 22.55 10.5C23.4833 10.7334 24.3 10.3834 25 9.45005C24.5333 11.3167 23.3667 12.25 21.5 12.25C18.7 12.25 18.35 10.15 16.95 9.80005C16.0167 9.56672 15.2 9.91672 14.5 10.85ZM11 15.05C11.4667 13.1834 12.6333 12.25 14.5 12.25C17.3 12.25 17.65 14.35 19.05 14.7C19.9833 14.9334 20.8 14.5834 21.5 13.65C21.0333 15.5167 19.8667 16.45 18 16.45C15.2 16.45 14.85 14.35 13.45 14C12.5167 13.7667 11.7 14.1167 11 15.05Z" fill="#44A8B3"/>
<path d="M39.228 16.5V9.036H36.492V7.62H43.596V9.036H40.86V16.5H39.228ZM46.3821 10.02C46.7901 10.02 47.1261 10.088 47.3901 10.224C47.6541 10.352 47.8621 10.496 48.0141 10.656C48.1661 10.808 48.2701 10.932 48.3261 11.028H48.3981V10.14H49.9941V16.5H48.3981V15.612H48.3261C48.2701 15.708 48.1661 15.836 48.0141 15.996C47.8621 16.156 47.6541 16.3 47.3901 16.428C47.1261 16.556 46.7901 16.62 46.3821 16.62C45.9101 16.62 45.4981 16.528 45.1461 16.344C44.7941 16.152 44.4981 15.9 44.2581 15.588C44.0261 15.268 43.8501 14.912 43.7301 14.52C43.6181 14.128 43.5621 13.728 43.5621 13.32C43.5621 12.912 43.6181 12.512 43.7301 12.12C43.8501 11.728 44.0261 11.376 44.2581 11.064C44.4981 10.744 44.7941 10.492 45.1461 10.308C45.4981 10.116 45.9101 10.02 46.3821 10.02ZM46.8021 11.328C46.4421 11.328 46.1381 11.428 45.8901 11.628C45.6501 11.82 45.4701 12.068 45.3501 12.372C45.2301 12.676 45.1701 12.992 45.1701 13.32C45.1701 13.648 45.2301 13.964 45.3501 14.268C45.4701 14.572 45.6501 14.824 45.8901 15.024C46.1381 15.216 46.4421 15.312 46.8021 15.312C47.1621 15.312 47.4621 15.216 47.7021 15.024C47.9421 14.824 48.1221 14.572 48.2421 14.268C48.3621 13.964 48.4221 13.648 48.4221 13.32C48.4221 12.992 48.3621 12.676 48.2421 12.372C48.1221 12.068 47.9421 11.82 47.7021 11.628C47.4621 11.428 47.1621 11.328 46.8021 11.328ZM52.4696 9.156C52.1896 9.156 51.9576 9.064 51.7736 8.88C51.5976 8.696 51.5096 8.476 51.5096 8.22C51.5096 7.964 51.5976 7.744 51.7736 7.56C51.9576 7.376 52.1896 7.284 52.4696 7.284C52.7496 7.284 52.9816 7.376 53.1656 7.56C53.3496 7.744 53.4416 7.964 53.4416 8.22C53.4416 8.476 53.3496 8.696 53.1656 8.88C52.9816 9.064 52.7496 9.156 52.4696 9.156ZM51.6776 16.5V10.14H53.2736V16.5H51.6776ZM55.0515 16.5L55.0635 7.38H56.6475V16.5H55.0515ZM59.8316 16.5L57.8396 10.14H59.4356L60.7076 14.508L62.0636 10.14H63.5156L64.8716 14.508L66.1436 10.14H67.7396L65.7356 16.5H64.0436L62.7956 12.456L61.5356 16.5H59.8316ZM69.7665 9.156C69.4865 9.156 69.2545 9.064 69.0705 8.88C68.8945 8.696 68.8065 8.476 68.8065 8.22C68.8065 7.964 68.8945 7.744 69.0705 7.56C69.2545 7.376 69.4865 7.284 69.7665 7.284C70.0465 7.284 70.2785 7.376 70.4625 7.56C70.6465 7.744 70.7385 7.964 70.7385 8.22C70.7385 8.476 70.6465 8.696 70.4625 8.88C70.2785 9.064 70.0465 9.156 69.7665 9.156ZM68.9745 16.5V10.14H70.5705V16.5H68.9745ZM72.2284 16.5V10.14H73.8244V11.052H73.8964C73.9604 10.94 74.0604 10.804 74.1964 10.644C74.3324 10.476 74.5204 10.332 74.7604 10.212C75.0004 10.084 75.3044 10.02 75.6724 10.02C76.1604 10.02 76.5604 10.132 76.8724 10.356C77.1924 10.572 77.4284 10.86 77.5804 11.22C77.7404 11.58 77.8204 11.968 77.8204 12.384V16.5H76.2244V12.6C76.2244 12.256 76.1284 11.96 75.9364 11.712C75.7444 11.464 75.4564 11.34 75.0724 11.34C74.7764 11.34 74.5364 11.416 74.3524 11.568C74.1684 11.712 74.0324 11.9 73.9444 12.132C73.8644 12.364 73.8244 12.608 73.8244 12.864V16.5H72.2284ZM81.9836 16.62C81.5116 16.62 81.0996 16.528 80.7476 16.344C80.3956 16.152 80.0996 15.9 79.8596 15.588C79.6276 15.268 79.4516 14.912 79.3316 14.52C79.2196 14.128 79.1636 13.728 79.1636 13.32C79.1636 12.912 79.2196 12.512 79.3316 12.12C79.4516 11.728 79.6276 11.376 79.8596 11.064C80.0996 10.744 80.3956 10.492 80.7476 10.308C81.0996 10.116 81.5116 10.02 81.9836 10.02C82.3916 10.02 82.7276 10.088 82.9916 10.224C83.2556 10.352 83.4636 10.496 83.6156 10.656C83.7676 10.808 83.8716 10.932 83.9276 11.028H83.9996V7.38H85.5956V16.5H83.9996V15.612H83.9276C83.8716 15.708 83.7676 15.836 83.6156 15.996C83.4636 16.156 83.2556 16.3 82.9916 16.428C82.7276 16.556 82.3916 16.62 81.9836 16.62ZM82.4036 15.312C82.7636 15.312 83.0636 15.216 83.3036 15.024C83.5436 14.824 83.7236 14.572 83.8436 14.268C83.9636 13.964 84.0236 13.648 84.0236 13.32C84.0236 12.992 83.9636 12.676 83.8436 12.372C83.7236 12.068 83.5436 11.82 83.3036 11.628C83.0636 11.428 82.7636 11.328 82.4036 11.328C82.0436 11.328 81.7396 11.428 81.4916 11.628C81.2516 11.82 81.0716 12.068 80.9516 12.372C80.8316 12.676 80.7716 12.992 80.7716 13.32C80.7716 13.648 80.8316 13.964 80.9516 14.268C81.0716 14.572 81.2516 14.824 81.4916 15.024C81.7396 15.216 82.0436 15.312 82.4036 15.312Z" fill="#EBE3D5"/>
</svg>
